<svg viewBox="0 0 64 64"  xmlns="http://www.w3.org/2000/svg"><path d="m42 10h3l-3-4z"/><path d="m11 12a1 1 0 0 0 -1 1v31h44v-26.713l-6 10.392v9.321a3 3 0 0 1 -3 3h-26a3 3 0 0 1 -3-3v-25z"/><path d="m19 4a1 1 0 0 0 -1 1v32a1 1 0 0 0 1 1h26a1 1 0 0 0 1-1v-6.1c-.032.02-.059.047-.093.064l-2.96 1.464-1.347 2.34a3 3 0 0 1 -5.2-3l1.349-2.337-.212-3.3a.994.994 0 0 1 .132-.564l7.837-13.567h-3.506a2 2 0 0 1 -2-2v-6zm7 4h10v2h-10zm-4 0h2v2h-2zm0 4h14v2h-14zm0 12h6v2h-6zm0 4h4v2h-4zm8 6h-8v-2h8zm0-4h-2v-2h2zm6 0h-4v-2h4zm-6-4v-2h2v2zm6 0h-2v-2h2zm0-4h-14v-2h14zm4-4h-18v-2h18z"/><path d="m51.724 6.987a2.984 2.984 0 0 0 -1.822 1.4l-.5.866 5.2 3 .5-.866a3 3 0 0 0 -3.374-4.4z"/><path d="m50.25 9.917h1v5.999h-1z" transform="matrix(.5 -.866 .866 .5 14.188 50.408)"/><path d="m38.134 32.768a1 1 0 0 0 1.732 1l1-1.732-1.732-1z"/><path d="m44.423 29.471-4.846-2.798.154 2.398 2.538 1.465z"/><path d="m40.402 24.84 1.732.999 5.5-9.526 1.732 1-5.5 9.527 1.732.999 6.5-11.258-5.196-2.999z"/><path d="m26.618 54-1 2h12.764l-1-2z"/><path d="m23.382 56 1.723-3.447a1 1 0 0 1 .895-.553h12a1 1 0 0 1 .9.553l1.718 3.447h18.764l-5-10h-44.764l-5 10zm30.618-2h-2v-2h2zm-3-6h2v2h-2zm-1 6h-2v-2h2zm-3-6h2v2h-2zm-4 0h2v2h-2zm-1 4h4v2h-4zm-3-4h2v2h-2zm-4 0h2v2h-2zm-4 0h2v2h-2zm-4 0h2v2h-2zm-4 0h2v2h-2zm-4 0h2v2h-2zm-1 4h4v2h-4zm-3-4h2v2h-2zm-1 4h2v2h-2zm-3-4h2v2h-2zm-1 4h2v2h-2z"/><path d="m4 58h56v2h-56z"/></svg>