<svg xmlns="http://www.w3.org/2000/svg" width="19.174" height="21" viewBox="0 0 19.174 21">
  <path id="brand2" d="M21.994,11.4,11.586,21.806a.39.39,0,0,1-.043.066.479.479,0,0,1-.653,0,.42.42,0,0,1-.043-.066L3.194,14.153a.409.409,0,0,1-.066-.043.479.479,0,0,1,0-.653.442.442,0,0,1,.066-.043L13.6,3.007a.447.447,0,0,1,.354-.18h1.852a2.607,2.607,0,0,1,.762-1.682l.007.008A.475.475,0,0,1,16.923,1a.507.507,0,0,1,.489.522.522.522,0,0,1-.2.41,1.493,1.493,0,0,0-.426.894h2.193a.446.446,0,0,1,.354.18l2.662,2.662a.449.449,0,0,1,.18.354v5.022A.447.447,0,0,1,21.994,11.4ZM17.269,8.152a.473.473,0,0,1-.346.152.506.506,0,0,1-.489-.522.523.523,0,0,1,.2-.411,1.326,1.326,0,0,0,.282-.4.916.916,0,1,0,.944.311A1.681,1.681,0,0,1,17.269,8.152ZM21.26,6.2,18.8,3.739H16.88a1.353,1.353,0,0,0,.331.5h0a.447.447,0,0,1,.058.042l.008-.008a2.656,2.656,0,0,1,.788,1.942c0,.019,0,.036-.005.055a1.823,1.823,0,1,1-.99-.242,1.525,1.525,0,0,0-.433-.967.531.531,0,0,1-.059-.042l-.007.008a2.528,2.528,0,0,1-.709-1.29H14.129L4.085,13.784l7.131,7.131L21.26,10.87V6.2ZM8.151,13a.446.446,0,0,1,.631,0L12,16.219a.446.446,0,1,1-.631.631L8.151,13.631A.446.446,0,0,1,8.151,13Zm1.826-1.826a.446.446,0,0,1,.631,0l3.218,3.218a.446.446,0,0,1-.631.631L9.977,11.8A.446.446,0,0,1,9.977,11.174Z" transform="translate(-3 -1)" fill="#fff" fill-rule="evenodd"/>
</svg>
