<svg xmlns="http://www.w3.org/2000/svg" width="32.411" height="25" viewBox="0 0 32.411 25">
  <path id="burger" d="M54.012,55.21H23.143c-.812-.051-1.159-1.471,0-1.543H54.012l.1.006C54.861,53.816,55.14,55.139,54.012,55.21Zm0-7.819H23.143c-.791-.05-1.191-1.469,0-1.543H54.012l.1.006C54.861,46,55.14,47.32,54.012,47.391Zm0-7.819H23.143c-.8-.05-1.159-1.471,0-1.543H54.012l.1.006C54.871,38.18,55.111,39.5,54.012,39.572Zm0-7.819H23.143c-.667-.042-.7-.3-.758-.627a.808.808,0,0,1,.758-.916H54.012l.1.006c.656.125.653.389.674.717A.808.808,0,0,1,54.012,31.753Z" transform="translate(-22.372 -30.21)" fill="#fff"/>
</svg>
