<svg xmlns="http://www.w3.org/2000/svg" viewBox="0 0 426.667 426.667" style="enable-background:new 0 0 426.667 426.667">
    <path d="M213.333,0C96,0,0,96,0,213.333s96,213.333,213.333,213.333s213.333-96,213.333-213.333S330.667,0,213.333,0z
			 M42.667,213.333c0-93.867,76.8-170.667,170.667-170.667c39.467,0,75.733,13.867,104.533,36.267L78.933,317.867
			C56.533,289.067,42.667,252.8,42.667,213.333z M213.333,384c-39.467,0-75.733-13.867-104.533-36.267L347.733,108.8
			C370.133,137.6,384,173.867,384,213.333C384,307.2,307.2,384,213.333,384z"/>
</svg>
