<svg xmlns="http://www.w3.org/2000/svg" width="21.193" height="21" viewBox="0 0 21.193 21">
  <path id="client" d="M21.976,12.455V11.8a2.737,2.737,0,0,0,1.352-2.341V8.3a2.716,2.716,0,0,0-5.431,0V9.462a2.643,2.643,0,0,0,1.3,2.293v.7a4.308,4.308,0,0,0-1.038.434,3.479,3.479,0,0,0-3.186-2.1,3.436,3.436,0,0,0-3.138,2.028,5.028,5.028,0,0,0-.941-.362V11.8a2.737,2.737,0,0,0,1.352-2.341V8.3a2.7,2.7,0,1,0-5.407,0V9.462a2.643,2.643,0,0,0,1.3,2.293v.7A5.019,5.019,0,0,0,4.5,17.307a.371.371,0,0,0,.362.362h7.217A3.55,3.55,0,0,0,13.262,18.8V19.89a6.521,6.521,0,0,0-4.828,6.348A.371.371,0,0,0,8.8,26.6H21.228a.371.371,0,0,0,.362-.362,6.613,6.613,0,0,0-4.9-6.348V18.852a3.541,3.541,0,0,0,1.231-1.159h7.41a.371.371,0,0,0,.362-.362A5.149,5.149,0,0,0,21.976,12.455ZM5.224,16.969a4.309,4.309,0,0,1,3.355-3.862.384.384,0,0,0,.29-.362V11.538a.323.323,0,0,0-.193-.314,1.977,1.977,0,0,1-1.11-1.762V8.3a1.979,1.979,0,0,1,3.959,0V9.462a2.036,2.036,0,0,1-1.134,1.786.379.379,0,0,0-.217.338v1.159a.384.384,0,0,0,.29.362,4.774,4.774,0,0,1,1.159.434,3.748,3.748,0,0,0-.072.748v1.545a3.611,3.611,0,0,0,.193,1.134ZM16.159,18.3a.379.379,0,0,0-.217.338v1.545a.384.384,0,0,0,.29.362,5.9,5.9,0,0,1,4.61,5.359H9.159A5.8,5.8,0,0,1,13.7,20.566a.384.384,0,0,0,.29-.362V18.61a.323.323,0,0,0-.193-.314,2.7,2.7,0,0,1-1.521-2.438V14.314a2.728,2.728,0,0,1,5.455,0v1.521A2.735,2.735,0,0,1,16.159,18.3Zm2.1-1.328a3.611,3.611,0,0,0,.193-1.134V14.29a2.838,2.838,0,0,0-.072-.652,4.037,4.037,0,0,1,1.255-.507.384.384,0,0,0,.29-.362V11.562a.323.323,0,0,0-.193-.314,1.977,1.977,0,0,1-1.11-1.762V8.328a1.979,1.979,0,1,1,3.959,0V9.486a2.036,2.036,0,0,1-1.134,1.786.379.379,0,0,0-.217.338v1.159a.384.384,0,0,0,.29.362,4.387,4.387,0,0,1,3.4,3.862l-6.662-.024Z" transform="translate(-4.5 -5.6)" fill="#fff"/>
</svg>
