<svg xmlns="http://www.w3.org/2000/svg" xmlns:xlink="http://www.w3.org/1999/xlink" width="512" height="512" viewBox="0 0 512 512"><defs><clipPath id="b"><rect width="512" height="512"/></clipPath></defs><g id="a" clip-path="url(#b)"><rect width="480" height="480" rx="25" transform="translate(16 16)" fill="#0f7240"/><rect width="480" height="240" rx="25" transform="translate(16 16)" fill="#166496"/><g transform="translate(-4.002 -516)"><g transform="translate(-47.095 -42.348)"><g transform="translate(-35.12 692.692) rotate(-20)" opacity="0.996"><path d="M22.731,0H456.144a22.731,22.731,0,0,1,22.731,22.731V295.509a22.731,22.731,0,0,1-22.731,22.732H22.731A22.731,22.731,0,0,1,0,295.509V22.731A22.731,22.731,0,0,1,22.731,0Z" transform="matrix(0.94, 0.342, -0.342, 0.94, 108.845, 0)" fill="#166496"/><path d="M206.721,69.129,242.3,103.073c3.98,0,48.907-44.221,48.907-44.221S456.144-7.813,456.144.762l22.731,25.982V172.323a22.731,22.731,0,0,1-22.731,22.731H22.731A22.731,22.731,0,0,1,0,172.323L7.628,162.4S194.167,69.129,206.721,69.129Z" transform="matrix(0.94, 0.342, -0.342, 0.94, 66.712, 115.757)" fill="#0f7240"/><path d="M301.367,91.246l124.79-66.4a16.7,16.7,0,0,1,22.987,7.668l27.465,58.737ZM0,91.245,167.874,1.954a16.706,16.706,0,0,1,22.986,7.7l38.006,81.589Z" transform="translate(18.249 179.707)" fill="#0f7240"/><path d="M308.518,48.757c-1.833-1.575-4.013-3.152-6.448-3.043-5.918.263-6.412,6.807-11.743,5.944s-1.929-4.368-7.653-8.174S267.19,42.6,268.59,37.939s17.795-13.1,17.795-13.1a16.7,16.7,0,0,1,22.987,7.668S315.612,46.077,314,50.6c-.307.859-.714,1.206-1.213,1.206C311.739,51.807,310.29,50.282,308.518,48.757ZM57,31.488c-9.816-1.36-8.2-9.534-12.647-9.6-2.173-.031-3.82,2.388-5.672,4.809-1.944,2.538-4.113,5.077-7.351,4.789-6.327-.564-5.653-6.594-10.96-9.6-2.368-1.339-5.757,1.225-9.16,3.79C6.981,28.868,2.731,32.054.386,27.757-3.847,20,28.1,1.954,28.1,1.954a16.708,16.708,0,0,1,22.987,7.7S65.93,31.543,57.775,31.545A5.668,5.668,0,0,1,57,31.488Z" transform="translate(158.021 179.707)" fill="#fff"/><path d="M33.411,0A33.411,33.411,0,1,1,0,33.411,33.411,33.411,0,0,1,33.411,0Z" transform="translate(273.827 142.854)" fill="#fbc531"/></g></g></g><path d="M-30.247-10.856H-58.835L-88.306-67.7h-.5q1.049,13.411,1.049,20.475v36.37h-19.316V-91.543h28.478l29.361,56.072h.331q-.773-12.2-.773-19.592v-36.48h19.427ZM62.692-51.31q0,20.365-9.989,30.961t-29.25,10.6Q4.467-9.753-5.66-20.4T-15.788-51.421q0-20.144,10.072-30.768T23.562-92.812q19.261,0,29.2,10.541T62.692-51.31Zm-55.52,0q0,23.4,16.281,23.4,8.278,0,12.28-5.685t4-17.716q0-12.086-4.056-17.854T23.562-74.931Q7.171-74.931,7.171-51.31Zm-209.14,194.984V62.987h21.91v80.687Zm74.506,0-16.5-58.114h-.5q1.159,14.846,1.159,23.069v35.045h-19.316V62.987h29.03l16.833,57.287h.442l16.5-57.287h29.085v80.687H-90.762V108.3q0-2.759.083-6.126t.745-16.5h-.5l-16.281,58Zm123.624,0-3.974-15.122H-34.028l-4.084,15.122H-62.064l26.325-81.018H-6.654L20,143.674Zm-8.5-33-3.477-13.245Q-17.029,93.01-18.768,86t-2.29-10.044q-.5,2.815-1.959,9.272T-29.5,110.671ZM58.856,96.432H93.68v43.489A95.731,95.731,0,0,1,62.5,144.778q-18.654,0-28.836-10.817T23.48,103.11q0-19.537,11.148-30.409T65.865,61.828a69.143,69.143,0,0,1,14.377,1.435,60.715,60.715,0,0,1,11.783,3.642l-6.9,17.109a42.663,42.663,0,0,0-19.151-4.3q-9.548,0-14.763,6.209T46,103.662q0,11.314,4.719,17.247t13.6,5.933a39.932,39.932,0,0,0,8.941-.938V113.264h-14.4Zm99.175,47.242h-47.9V62.987h47.9v17.5h-26.1V93.176H156.1v17.5H131.927V125.9h26.1Z" transform="translate(278 230)" fill="#fff" opacity="0.8"/></g></svg>