<svg xmlns="http://www.w3.org/2000/svg" xmlns:xlink="http://www.w3.org/1999/xlink" width="512" height="512" viewBox="0 0 512 512"><defs><clipPath id="b"><rect width="512" height="512"/></clipPath></defs><g id="a" clip-path="url(#b)"><g transform="translate(-4.002 -516)"><path d="M25,0H388.82a25,25,0,0,1,25,25V347.82a25,25,0,0,1-25,25H25a25,25,0,0,1-25-25V25A25,25,0,0,1,25,0Z" transform="translate(53.002 631)" fill="none" stroke="#292f4d" stroke-linecap="round" stroke-width="4" stroke-dasharray="24 24"/><g transform="matrix(0.998, -0.07, 0.07, 0.998, 93.744, 653.853)" opacity="0.205"><rect width="316" height="210" rx="15" transform="matrix(0.94, 0.342, -0.342, 0.94, 64.18, -4.641)" fill="#166496"/><path d="M136.411,126.9l23.48,22.4c2.626,0,32.273-29.181,32.273-29.181S301,76.132,301,81.79l15,17.145V195a15,15,0,0,1-15,15H15A15,15,0,0,1,0,195l5.034-6.547S128.127,126.9,136.411,126.9Z" transform="matrix(0.94, 0.342, -0.342, 0.94, 64.18, -4.641)" fill="#0f7240"/><path d="M676.806-1071.414l82.346-43.819a11.022,11.022,0,0,1,8.672-.728,11.025,11.025,0,0,1,6.5,5.788l18.123,38.759Zm-198.866,0,110.777-58.921a11.024,11.024,0,0,1,8.676-.718,11.02,11.02,0,0,1,6.492,5.8l25.079,53.839Z" transform="translate(-473.542 1245.569)" fill="#0f7240"/><path d="M681.525-1099.452c-1.21-1.039-2.648-2.08-4.255-2.008-3.905.174-4.231,4.492-7.749,3.922s-1.273-2.883-5.05-5.394-10.218-.583-9.293-3.659,11.742-8.643,11.742-8.643a11.022,11.022,0,0,1,8.672-.728,11.024,11.024,0,0,1,6.5,5.788s4.117,8.953,3.053,11.938c-.2.567-.471.8-.8.8C683.651-1097.439,682.694-1098.446,681.525-1099.452Zm-165.973-11.4c-6.477-.9-5.41-6.291-8.346-6.333-1.434-.021-2.521,1.576-3.743,3.173-1.283,1.675-2.714,3.35-4.851,3.16-4.175-.373-3.73-4.351-7.232-6.333-1.562-.884-3.8.808-6.044,2.5-2.789,2.1-5.594,4.206-7.141,1.371-2.794-5.118,18.289-17.027,18.289-17.027a11.025,11.025,0,0,1,8.676-.718,11.024,11.024,0,0,1,6.493,5.8s9.793,14.443,4.412,14.444A3.73,3.73,0,0,1,515.552-1110.848Z" transform="translate(-381.309 1245.569)" fill="#fff"/><path d="M22.047,0A22.047,22.047,0,1,1,0,22.047,22.047,22.047,0,0,1,22.047,0Z" transform="translate(173.049 89.626)" fill="#fbc531"/></g><g transform="matrix(0.999, -0.035, 0.035, 0.999, 103.586, 627.42)" opacity="0.299"><rect width="316" height="210" rx="15" transform="matrix(0.94, 0.342, -0.342, 0.94, 64.18, -4.641)" fill="#166496"/><path d="M136.411,126.9l23.48,22.4c2.626,0,32.273-29.181,32.273-29.181S301,76.132,301,81.79l15,17.145V195a15,15,0,0,1-15,15H15A15,15,0,0,1,0,195l5.034-6.547S128.127,126.9,136.411,126.9Z" transform="matrix(0.94, 0.342, -0.342, 0.94, 64.18, -4.641)" fill="#0f7240"/><path d="M676.806-1071.414l82.346-43.819a11.022,11.022,0,0,1,8.672-.728,11.025,11.025,0,0,1,6.5,5.788l18.123,38.759Zm-198.866,0,110.777-58.921a11.024,11.024,0,0,1,8.676-.718,11.02,11.02,0,0,1,6.492,5.8l25.079,53.839Z" transform="translate(-473.542 1245.569)" fill="#0f7240"/><path d="M681.525-1099.452c-1.21-1.039-2.648-2.08-4.255-2.008-3.905.174-4.231,4.492-7.749,3.922s-1.273-2.883-5.05-5.394-10.218-.583-9.293-3.659,11.742-8.643,11.742-8.643a11.022,11.022,0,0,1,8.672-.728,11.024,11.024,0,0,1,6.5,5.788s4.117,8.953,3.053,11.938c-.2.567-.471.8-.8.8C683.651-1097.439,682.694-1098.446,681.525-1099.452Zm-165.973-11.4c-6.477-.9-5.41-6.291-8.346-6.333-1.434-.021-2.521,1.576-3.743,3.173-1.283,1.675-2.714,3.35-4.851,3.16-4.175-.373-3.73-4.351-7.232-6.333-1.562-.884-3.8.808-6.044,2.5-2.789,2.1-5.594,4.206-7.141,1.371-2.794-5.118,18.289-17.027,18.289-17.027a11.025,11.025,0,0,1,8.676-.718,11.024,11.024,0,0,1,6.493,5.8s9.793,14.443,4.412,14.444A3.73,3.73,0,0,1,515.552-1110.848Z" transform="translate(-381.309 1245.569)" fill="#fff"/><path d="M22.047,0A22.047,22.047,0,1,1,0,22.047,22.047,22.047,0,0,1,22.047,0Z" transform="translate(173.049 89.626)" fill="#fbc531"/></g><g transform="translate(113.642 601.163)" opacity="0.403"><rect width="316" height="210" rx="15" transform="matrix(0.94, 0.342, -0.342, 0.94, 64.18, -4.641)" fill="#166496"/><path d="M136.411,126.9l23.48,22.4c2.626,0,32.273-29.181,32.273-29.181S301,76.132,301,81.79l15,17.145V195a15,15,0,0,1-15,15H15A15,15,0,0,1,0,195l5.034-6.547S128.127,126.9,136.411,126.9Z" transform="matrix(0.94, 0.342, -0.342, 0.94, 64.18, -4.641)" fill="#0f7240"/><path d="M676.806-1071.414l82.346-43.819a11.022,11.022,0,0,1,8.672-.728,11.025,11.025,0,0,1,6.5,5.788l18.123,38.759Zm-198.866,0,110.777-58.921a11.024,11.024,0,0,1,8.676-.718,11.02,11.02,0,0,1,6.492,5.8l25.079,53.839Z" transform="translate(-473.542 1245.569)" fill="#0f7240"/><path d="M681.525-1099.452c-1.21-1.039-2.648-2.08-4.255-2.008-3.905.174-4.231,4.492-7.749,3.922s-1.273-2.883-5.05-5.394-10.218-.583-9.293-3.659,11.742-8.643,11.742-8.643a11.022,11.022,0,0,1,8.672-.728,11.024,11.024,0,0,1,6.5,5.788s4.117,8.953,3.053,11.938c-.2.567-.471.8-.8.8C683.651-1097.439,682.694-1098.446,681.525-1099.452Zm-165.973-11.4c-6.477-.9-5.41-6.291-8.346-6.333-1.434-.021-2.521,1.576-3.743,3.173-1.283,1.675-2.714,3.35-4.851,3.16-4.175-.373-3.73-4.351-7.232-6.333-1.562-.884-3.8.808-6.044,2.5-2.789,2.1-5.594,4.206-7.141,1.371-2.794-5.118,18.289-17.027,18.289-17.027a11.025,11.025,0,0,1,8.676-.718,11.024,11.024,0,0,1,6.493,5.8s9.793,14.443,4.412,14.444A3.73,3.73,0,0,1,515.552-1110.848Z" transform="translate(-381.309 1245.569)" fill="#fff"/><path d="M22.047,0A22.047,22.047,0,1,1,0,22.047,22.047,22.047,0,0,1,22.047,0Z" transform="translate(173.049 89.626)" fill="#fbc531"/></g><g transform="matrix(0.999, 0.035, -0.035, 0.999, 123.913, 575.09)" opacity="0.499"><rect width="316" height="210" rx="15" transform="matrix(0.94, 0.342, -0.342, 0.94, 64.18, -4.641)" fill="#166496"/><path d="M136.411,126.9l23.48,22.4c2.626,0,32.273-29.181,32.273-29.181S301,76.132,301,81.79l15,17.145V195a15,15,0,0,1-15,15H15A15,15,0,0,1,0,195l5.034-6.547S128.127,126.9,136.411,126.9Z" transform="matrix(0.94, 0.342, -0.342, 0.94, 64.18, -4.641)" fill="#0f7240"/><path d="M676.806-1071.414l82.346-43.819a11.022,11.022,0,0,1,8.672-.728,11.025,11.025,0,0,1,6.5,5.788l18.123,38.759Zm-198.866,0,110.777-58.921a11.024,11.024,0,0,1,8.676-.718,11.02,11.02,0,0,1,6.492,5.8l25.079,53.839Z" transform="translate(-473.542 1245.569)" fill="#0f7240"/><path d="M681.525-1099.452c-1.21-1.039-2.648-2.08-4.255-2.008-3.905.174-4.231,4.492-7.749,3.922s-1.273-2.883-5.05-5.394-10.218-.583-9.293-3.659,11.742-8.643,11.742-8.643a11.022,11.022,0,0,1,8.672-.728,11.024,11.024,0,0,1,6.5,5.788s4.117,8.953,3.053,11.938c-.2.567-.471.8-.8.8C683.651-1097.439,682.694-1098.446,681.525-1099.452Zm-165.973-11.4c-6.477-.9-5.41-6.291-8.346-6.333-1.434-.021-2.521,1.576-3.743,3.173-1.283,1.675-2.714,3.35-4.851,3.16-4.175-.373-3.73-4.351-7.232-6.333-1.562-.884-3.8.808-6.044,2.5-2.789,2.1-5.594,4.206-7.141,1.371-2.794-5.118,18.289-17.027,18.289-17.027a11.025,11.025,0,0,1,8.676-.718,11.024,11.024,0,0,1,6.493,5.8s9.793,14.443,4.412,14.444A3.73,3.73,0,0,1,515.552-1110.848Z" transform="translate(-381.309 1245.569)" fill="#fff"/><path d="M22.047,0A22.047,22.047,0,1,1,0,22.047,22.047,22.047,0,0,1,22.047,0Z" transform="translate(173.049 89.626)" fill="#fbc531"/></g><g transform="matrix(0.998, 0.07, -0.07, 0.998, 134.397, 549.2)" opacity="0.697"><rect width="316" height="210" rx="15" transform="matrix(0.94, 0.342, -0.342, 0.94, 64.18, -4.641)" fill="#166496"/><path d="M136.411,126.9l23.48,22.4c2.626,0,32.273-29.181,32.273-29.181S301,76.132,301,81.79l15,17.145V195a15,15,0,0,1-15,15H15A15,15,0,0,1,0,195l5.034-6.547S128.127,126.9,136.411,126.9Z" transform="matrix(0.94, 0.342, -0.342, 0.94, 64.18, -4.641)" fill="#0f7240"/><path d="M676.806-1071.414l82.346-43.819a11.022,11.022,0,0,1,8.672-.728,11.025,11.025,0,0,1,6.5,5.788l18.123,38.759Zm-198.866,0,110.777-58.921a11.024,11.024,0,0,1,8.676-.718,11.02,11.02,0,0,1,6.492,5.8l25.079,53.839Z" transform="translate(-473.542 1245.569)" fill="#0f7240"/><path d="M681.525-1099.452c-1.21-1.039-2.648-2.08-4.255-2.008-3.905.174-4.231,4.492-7.749,3.922s-1.273-2.883-5.05-5.394-10.218-.583-9.293-3.659,11.742-8.643,11.742-8.643a11.022,11.022,0,0,1,8.672-.728,11.024,11.024,0,0,1,6.5,5.788s4.117,8.953,3.053,11.938c-.2.567-.471.8-.8.8C683.651-1097.439,682.694-1098.446,681.525-1099.452Zm-165.973-11.4c-6.477-.9-5.41-6.291-8.346-6.333-1.434-.021-2.521,1.576-3.743,3.173-1.283,1.675-2.714,3.35-4.851,3.16-4.175-.373-3.73-4.351-7.232-6.333-1.562-.884-3.8.808-6.044,2.5-2.789,2.1-5.594,4.206-7.141,1.371-2.794-5.118,18.289-17.027,18.289-17.027a11.025,11.025,0,0,1,8.676-.718,11.024,11.024,0,0,1,6.493,5.8s9.793,14.443,4.412,14.444A3.73,3.73,0,0,1,515.552-1110.848Z" transform="translate(-381.309 1245.569)" fill="#fff"/><path d="M22.047,0A22.047,22.047,0,1,1,0,22.047,22.047,22.047,0,0,1,22.047,0Z" transform="translate(173.049 89.626)" fill="#fbc531"/></g><g transform="matrix(0.995, 0.105, -0.105, 0.995, 145.078, 523.508)" opacity="0.996"><rect width="316" height="210" rx="15" transform="matrix(0.94, 0.342, -0.342, 0.94, 64.18, -4.641)" fill="#166496"/><path d="M136.411,126.9l23.48,22.4c2.626,0,32.273-29.181,32.273-29.181S301,76.132,301,81.79l15,17.145V195a15,15,0,0,1-15,15H15A15,15,0,0,1,0,195l5.034-6.547S128.127,126.9,136.411,126.9Z" transform="matrix(0.94, 0.342, -0.342, 0.94, 64.18, -4.641)" fill="#0f7240"/><path d="M676.806-1071.414l82.346-43.819a11.022,11.022,0,0,1,8.672-.728,11.025,11.025,0,0,1,6.5,5.788l18.123,38.759Zm-198.866,0,110.777-58.921a11.024,11.024,0,0,1,8.676-.718,11.02,11.02,0,0,1,6.492,5.8l25.079,53.839Z" transform="translate(-473.542 1245.569)" fill="#0f7240"/><path d="M681.525-1099.452c-1.21-1.039-2.648-2.08-4.255-2.008-3.905.174-4.231,4.492-7.749,3.922s-1.273-2.883-5.05-5.394-10.218-.583-9.293-3.659,11.742-8.643,11.742-8.643a11.022,11.022,0,0,1,8.672-.728,11.024,11.024,0,0,1,6.5,5.788s4.117,8.953,3.053,11.938c-.2.567-.471.8-.8.8C683.651-1097.439,682.694-1098.446,681.525-1099.452Zm-165.973-11.4c-6.477-.9-5.41-6.291-8.346-6.333-1.434-.021-2.521,1.576-3.743,3.173-1.283,1.675-2.714,3.35-4.851,3.16-4.175-.373-3.73-4.351-7.232-6.333-1.562-.884-3.8.808-6.044,2.5-2.789,2.1-5.594,4.206-7.141,1.371-2.794-5.118,18.289-17.027,18.289-17.027a11.025,11.025,0,0,1,8.676-.718,11.024,11.024,0,0,1,6.493,5.8s9.793,14.443,4.412,14.444A3.73,3.73,0,0,1,515.552-1110.848Z" transform="translate(-381.309 1245.569)" fill="#fff"/><path d="M22.047,0A22.047,22.047,0,1,1,0,22.047,22.047,22.047,0,0,1,22.047,0Z" transform="translate(173.049 89.626)" fill="#fbc531"/></g></g></g></svg>