<svg xmlns="http://www.w3.org/2000/svg" xmlns:xlink="http://www.w3.org/1999/xlink" width="512" height="512" viewBox="0 0 512 512"><defs><clipPath id="a"><rect width="485" height="473.424" fill="none"/></clipPath><linearGradient id="b" x1="0.5" y1="-0.478" x2="0.5" y2="0.935" gradientUnits="objectBoundingBox"><stop offset="0" stop-color="#166496"/><stop offset="1" stop-color="#292f4d"/></linearGradient><clipPath id="g"><rect width="512" height="512"/></clipPath></defs><g id="f" clip-path="url(#g)"><g transform="translate(16 24)" clip-path="url(#a)"><g transform="translate(-16 -24)"><path d="M-1556.03-289.576h-124.648a15.173,15.173,0,0,1-14.87-12.214l-22.3-111.486a7.589,7.589,0,0,1,1.575-6.29,7.584,7.584,0,0,1,5.86-2.776h7.587v-26.553a11.38,11.38,0,0,1,11.38-11.38h36.6l13.353-36.719a7.587,7.587,0,0,1,9.711-4.552l121.2,44.117a7.586,7.586,0,0,1,4.552,9.711l-7.131,19.574v5.8h7.587a7.587,7.587,0,0,1,5.86,2.776,7.588,7.588,0,0,1,1.574,6.29l-22.3,111.486a15.173,15.173,0,0,1-14.87,12.214Z" transform="translate(1733.999 525.999)" fill="url(#b)"/></g><g transform="translate(236 -24)"><path d="M-1556.03-289.576h-124.648a15.173,15.173,0,0,1-14.87-12.214l-22.3-111.486a7.589,7.589,0,0,1,1.575-6.29,7.584,7.584,0,0,1,5.86-2.776h7.587v-26.553a11.38,11.38,0,0,1,11.38-11.38h36.6l13.353-36.719a7.587,7.587,0,0,1,9.711-4.552l121.2,44.117a7.586,7.586,0,0,1,4.552,9.711l-7.131,19.574v5.8h7.587a7.587,7.587,0,0,1,5.86,2.776,7.588,7.588,0,0,1,1.574,6.29l-22.3,111.486a15.173,15.173,0,0,1-14.87,12.214Z" transform="translate(1733.999 525.999)" fill="url(#b)"/></g><g transform="translate(-16 221)"><path d="M-1556.03-289.576h-124.648a15.173,15.173,0,0,1-14.87-12.214l-22.3-111.486a7.589,7.589,0,0,1,1.575-6.29,7.584,7.584,0,0,1,5.86-2.776h7.587v-26.553a11.38,11.38,0,0,1,11.38-11.38h36.6l13.353-36.719a7.587,7.587,0,0,1,9.711-4.552l121.2,44.117a7.586,7.586,0,0,1,4.552,9.711l-7.131,19.574v5.8h7.587a7.587,7.587,0,0,1,5.86,2.776,7.588,7.588,0,0,1,1.574,6.29l-22.3,111.486a15.173,15.173,0,0,1-14.87,12.214Z" transform="translate(1733.999 525.999)" fill="url(#b)"/></g><g transform="translate(236 221)"><path d="M-1556.03-289.576h-124.648a15.173,15.173,0,0,1-14.87-12.214l-22.3-111.486a7.589,7.589,0,0,1,1.575-6.29,7.584,7.584,0,0,1,5.86-2.776h7.587v-26.553a11.38,11.38,0,0,1,11.38-11.38h36.6l13.353-36.719a7.587,7.587,0,0,1,9.711-4.552l121.2,44.117a7.586,7.586,0,0,1,4.552,9.711l-7.131,19.574v5.8h7.587a7.587,7.587,0,0,1,5.86,2.776,7.588,7.588,0,0,1,1.574,6.29l-22.3,111.486a15.173,15.173,0,0,1-14.87,12.214Z" transform="translate(1733.999 525.999)" fill="url(#b)"/></g></g></g></svg>