<svg xmlns="http://www.w3.org/2000/svg" xmlns:xlink="http://www.w3.org/1999/xlink" width="512" height="512" viewBox="0 0 512 512"><defs><clipPath id="a"><rect width="480" height="464" fill="none"/></clipPath><linearGradient id="b" x1="0.5" y1="-0.478" x2="0.5" y2="0.935" gradientUnits="objectBoundingBox"><stop offset="0" stop-color="#166496"/><stop offset="1" stop-color="#292f4d"/></linearGradient><clipPath id="k"><rect width="512" height="512"/></clipPath></defs><g id="j" clip-path="url(#k)"><g transform="translate(16 24)" clip-path="url(#a)"><g transform="translate(-16 -24)"><path d="M-1644.8-406h-56.332a6.857,6.857,0,0,1-6.72-5.52l-10.08-50.383a3.43,3.43,0,0,1,.712-2.843,3.428,3.428,0,0,1,2.648-1.254h3.429v-12a5.143,5.143,0,0,1,5.143-5.143h16.543l6.035-16.595a3.429,3.429,0,0,1,4.389-2.057l54.772,19.937a3.428,3.428,0,0,1,2.057,4.389l-3.223,8.846V-466H-1622a3.429,3.429,0,0,1,2.649,1.254,3.43,3.43,0,0,1,.712,2.843l-10.08,50.383a6.857,6.857,0,0,1-6.72,5.52Z" transform="translate(1733.999 525.999)" fill="url(#b)"/><rect width="365" height="96" rx="5" transform="translate(131 24)" opacity="0.903" fill="url(#b)"/></g><g transform="translate(-16 93)"><path d="M-1644.8-406h-56.332a6.857,6.857,0,0,1-6.72-5.52l-10.08-50.383a3.43,3.43,0,0,1,.712-2.843,3.428,3.428,0,0,1,2.648-1.254h3.429v-12a5.143,5.143,0,0,1,5.143-5.143h16.543l6.035-16.595a3.429,3.429,0,0,1,4.389-2.057l54.772,19.937a3.428,3.428,0,0,1,2.057,4.389l-3.223,8.846V-466H-1622a3.429,3.429,0,0,1,2.649,1.254,3.43,3.43,0,0,1,.712,2.843l-10.08,50.383a6.857,6.857,0,0,1-6.72,5.52Z" transform="translate(1733.999 525.999)" fill="url(#b)"/><rect width="365" height="96" rx="5" transform="translate(131 24)" opacity="0.903" fill="url(#b)"/></g><g transform="translate(-16 210)"><path d="M-1644.8-406h-56.332a6.857,6.857,0,0,1-6.72-5.52l-10.08-50.383a3.43,3.43,0,0,1,.712-2.843,3.428,3.428,0,0,1,2.648-1.254h3.429v-12a5.143,5.143,0,0,1,5.143-5.143h16.543l6.035-16.595a3.429,3.429,0,0,1,4.389-2.057l54.772,19.937a3.428,3.428,0,0,1,2.057,4.389l-3.223,8.846V-466H-1622a3.429,3.429,0,0,1,2.649,1.254,3.43,3.43,0,0,1,.712,2.843l-10.08,50.383a6.857,6.857,0,0,1-6.72,5.52Z" transform="translate(1733.999 525.999)" fill="url(#b)"/><rect width="365" height="96" rx="5" transform="translate(131 24)" opacity="0.903" fill="url(#b)"/></g><g transform="translate(-16 327)"><path d="M-1644.8-406h-56.332a6.857,6.857,0,0,1-6.72-5.52l-10.08-50.383a3.43,3.43,0,0,1,.712-2.843,3.428,3.428,0,0,1,2.648-1.254h3.429v-12a5.143,5.143,0,0,1,5.143-5.143h16.543l6.035-16.595a3.429,3.429,0,0,1,4.389-2.057l54.772,19.937a3.428,3.428,0,0,1,2.057,4.389l-3.223,8.846V-466H-1622a3.429,3.429,0,0,1,2.649,1.254,3.43,3.43,0,0,1,.712,2.843l-10.08,50.383a6.857,6.857,0,0,1-6.72,5.52Z" transform="translate(1733.999 525.999)" fill="url(#b)"/><rect width="365" height="96" rx="5" transform="translate(131 24)" opacity="0.903" fill="url(#b)"/></g></g></g></svg>