<svg xmlns="http://www.w3.org/2000/svg" xmlns:xlink="http://www.w3.org/1999/xlink" width="512" height="512" viewBox="0 0 512 512"><defs><radialGradient id="a" cx="0.672" cy="0.847" r="0.522" gradientTransform="matrix(0.899, -0.438, 0.721, 1.48, -0.5, -0.079)" gradientUnits="objectBoundingBox"><stop offset="0" stop-color="#166496"/><stop offset="1" stop-color="#292f4d"/></radialGradient><clipPath id="c"><rect width="512" height="512"/></clipPath></defs><g id="b" clip-path="url(#c)"><g transform="translate(-4.002 -516)"><rect width="319" height="212" rx="15" transform="translate(20.001 541)"/><g transform="translate(-13.095 -63.348)" opacity="0.704"><g transform="translate(-35.12 628.981) rotate(-20)" opacity="0.996"><path d="M15.154,0H304.1a15.154,15.154,0,0,1,15.154,15.154V197.007A15.154,15.154,0,0,1,304.1,212.161H15.154A15.154,15.154,0,0,1,0,197.007V15.154A15.154,15.154,0,0,1,15.154,0Z" transform="matrix(0.94, 0.342, -0.342, 0.94, 72.563, 0)" fill="#166496"/><path d="M137.815,46.086l23.721,22.629c2.653,0,32.6-29.481,32.6-29.481S304.1-5.209,304.1.508l15.154,17.322v97.053A15.154,15.154,0,0,1,304.1,130.037H15.154A15.154,15.154,0,0,1,0,114.882l5.085-6.614S129.446,46.086,137.815,46.086Z" transform="matrix(0.94, 0.342, -0.342, 0.94, 44.475, 77.172)" fill="#0f7240"/><path d="M200.912,60.831l83.194-44.27a11.136,11.136,0,0,1,15.325,5.112l18.31,39.158ZM0,60.83,111.917,1.3A11.137,11.137,0,0,1,127.24,6.437L152.578,60.83Z" transform="translate(12.166 119.805)" fill="#0f7240"/><path d="M205.68,32.5c-1.222-1.05-2.675-2.1-4.3-2.028-3.945.176-4.274,4.538-7.829,3.962s-1.286-2.912-5.1-5.449-10.323-.589-9.389-3.7,11.863-8.732,11.863-8.732a11.136,11.136,0,0,1,15.325,5.112s4.16,9.045,3.084,12.061c-.2.572-.476.8-.809.8C207.827,34.538,206.861,33.521,205.68,32.5ZM38,20.992c-6.544-.907-5.466-6.356-8.432-6.4-1.448-.021-2.547,1.592-3.782,3.206-1.3,1.692-2.742,3.384-4.9,3.192-4.218-.376-3.769-4.4-7.307-6.4C12,13.7,9.74,15.41,7.472,17.12,4.654,19.245,1.821,21.369.258,18.5-2.565,13.334,18.735,1.3,18.735,1.3A11.139,11.139,0,0,1,34.059,6.437s9.894,14.591,4.458,14.593A3.779,3.779,0,0,1,38,20.992Z" transform="translate(105.348 119.805)" fill="#fff"/><path d="M22.274,0A22.274,22.274,0,1,1,0,22.274,22.274,22.274,0,0,1,22.274,0Z" transform="translate(182.552 95.237)" fill="#fbc531"/></g></g><g transform="translate(50.122 107.652)"><g transform="translate(-35.12 660.839) rotate(-20)" opacity="0.996"><path d="M18.943,0H380.125a18.943,18.943,0,0,1,18.943,18.943V246.26A18.943,18.943,0,0,1,380.125,265.2H18.943A18.943,18.943,0,0,1,0,246.26V18.943A18.943,18.943,0,0,1,18.943,0Z" transform="matrix(0.94, 0.342, -0.342, 0.94, 90.705, 0)" fill="#166496"/><path d="M172.27,57.608l29.652,28.287c3.316,0,40.756-36.851,40.756-36.851S380.125-6.511,380.125.635l18.943,21.652V143.6a18.943,18.943,0,0,1-18.943,18.943H18.943A18.943,18.943,0,0,1,0,143.6l6.357-8.268S161.808,57.608,172.27,57.608Z" transform="matrix(0.94, 0.342, -0.342, 0.94, 55.594, 96.465)" fill="#0f7240"/><path d="M251.142,76.039,355.135,20.7a13.921,13.921,0,0,1,19.156,6.39l22.888,48.948ZM0,76.038,139.9,1.628a13.922,13.922,0,0,1,19.155,6.418l31.672,67.992Z" transform="translate(15.208 149.758)" fill="#0f7240"/><path d="M257.1,40.631c-1.528-1.313-3.344-2.627-5.374-2.536-4.932.219-5.343,5.673-9.786,4.953s-1.607-3.64-6.377-6.811-12.9-.736-11.736-4.621S238.657,20.7,238.657,20.7a13.921,13.921,0,0,1,19.156,6.39s5.2,11.307,3.855,15.077c-.256.716-.6,1-1.011,1C259.786,43.173,258.579,41.9,257.1,40.631ZM47.5,26.24c-8.18-1.133-6.832-7.945-10.54-8-1.811-.026-3.184,1.99-4.727,4.007-1.62,2.115-3.428,4.231-6.126,3.991-5.273-.47-4.711-5.5-9.134-8C15,17.126,12.175,19.262,9.34,21.4,5.817,24.057,2.276,26.712.322,23.131c-3.528-6.464,23.1-21.5,23.1-21.5A13.924,13.924,0,0,1,42.575,8.047s12.367,18.239,5.572,18.241A4.724,4.724,0,0,1,47.5,26.24Z" transform="translate(131.686 149.758)" fill="#fff"/><path d="M27.843,0A27.843,27.843,0,1,1,0,27.843,27.843,27.843,0,0,1,27.843,0Z" transform="translate(228.192 119.047)" fill="#fbc531"/></g></g></g><g transform="translate(347.619 56)"><g transform="translate(12.381)"><path d="M100.148,94.217h24.19l-39,39-39-39H70.819c-3.464-45.956-27.4-83.083-58.438-92.111A52.3,52.3,0,0,1,27.04,0C64.952,0,96.156,41.242,100.148,94.217Z" transform="translate(-12.381 0)" fill="url(#a)"/></g></g></g></svg>