<svg xmlns="http://www.w3.org/2000/svg" xmlns:xlink="http://www.w3.org/1999/xlink" width="512" height="512" viewBox="0 0 512 512">
  <defs>
    <linearGradient id="linear-gradient" x1="0.5" y1="-0.478" x2="0.5" y2="0.935" gradientUnits="objectBoundingBox">
      <stop offset="0" stop-color="#166496"/>
      <stop offset="1" stop-color="#292f4d"/>
    </linearGradient>
    <linearGradient id="linear-gradient-2" y1="-0.162" y2="1.121" xlink:href="#linear-gradient"/>
    <clipPath id="clip-folder-image">
      <rect width="512" height="512"/>
    </clipPath>
  </defs>
  <g id="folder-image" clip-path="url(#clip-folder-image)">
    <g id="Page-1" transform="translate(-4.002 -516)">
      <path id="back" d="M392.987,52.382H177.8a8.276,8.276,0,0,1-8.276-8.276V35.829A24.829,24.829,0,0,0,144.7,11H28.829A24.829,24.829,0,0,0,4,35.829v74.487H417.816V77.211A24.829,24.829,0,0,0,392.987,52.382Z" transform="translate(49.094 620.036)" fill="url(#linear-gradient)"/>
      <path id="front" d="M353.387,310.671h45.189a33.1,33.1,0,0,0,32.443-26.65L479.684,40.78A16.553,16.553,0,0,0,463.462,21H16.541A16.553,16.553,0,0,0,.319,40.78L48.984,284.021a33.1,33.1,0,0,0,32.443,26.65Z" transform="translate(20 692.799)" fill="url(#linear-gradient-2)"/>
      <g id="image" transform="translate(127.663 540)">
        <path id="sky" d="M347.621,173.8l4.635-12.663,15.56-42.706a16.553,16.553,0,0,0-9.932-21.187L93.456.99a16.553,16.553,0,0,0-21.187,9.932L43.136,91.036,13.01,173.8Z" transform="translate(-13.01 0)" fill="#166496"/>
        <path id="mountain" d="M676.806-1071.414l82.346-43.819a11.022,11.022,0,0,1,8.672-.728,11.025,11.025,0,0,1,6.5,5.788l18.123,38.759Zm-198.866,0,110.777-58.921a11.024,11.024,0,0,1,8.676-.718,11.02,11.02,0,0,1,6.492,5.8l25.079,53.839Z" transform="translate(-473.542 1245.569)" fill="#0f7240"/>
        <path id="snow" d="M681.525-1099.452c-1.21-1.039-2.648-2.08-4.255-2.008-3.905.174-4.231,4.492-7.749,3.922s-1.273-2.883-5.05-5.394-10.218-.583-9.293-3.659,11.742-8.643,11.742-8.643a11.022,11.022,0,0,1,8.672-.728,11.024,11.024,0,0,1,6.5,5.788s4.117,8.953,3.053,11.938c-.2.567-.471.8-.8.8C683.651-1097.439,682.694-1098.446,681.525-1099.452Zm-165.973-11.4c-6.477-.9-5.41-6.291-8.346-6.333-1.434-.021-2.521,1.576-3.743,3.173-1.283,1.675-2.714,3.35-4.851,3.16-4.175-.373-3.73-4.351-7.232-6.333-1.562-.884-3.8.808-6.044,2.5-2.789,2.1-5.594,4.206-7.141,1.371-2.794-5.118,18.289-17.027,18.289-17.027a11.025,11.025,0,0,1,8.676-.718,11.024,11.024,0,0,1,6.493,5.8s9.793,14.443,4.412,14.444A3.73,3.73,0,0,1,515.552-1110.848Z" transform="translate(-381.309 1245.569)" fill="#fff"/>
        <path id="sun" d="M22.047,0A22.047,22.047,0,1,1,0,22.047,22.047,22.047,0,0,1,22.047,0Z" transform="translate(173.049 89.626)" fill="#fbc531"/>
      </g>
    </g>
  </g>
</svg>
