<svg viewBox="-1 0 512 512.00018" xmlns="http://www.w3.org/2000/svg"><path d="m490.121094 3.300781-469.960938-3.300781c-.046875 0-.09375 0-.140625 0-17.207031 0-26.375 20.382812-14.96875 33.257812l169.382813 191.28125v267.445313c0 18.292969 22.554687 26.917969 34.796875 13.453125l119.484375-131.421875c3.347656-3.683594 5.203125-8.480469 5.203125-13.453125v-135.871094l170.859375-187.9375c11.613281-12.773437 2.605468-33.328125-14.65625-33.453125zm-191 200.203125c-3.347656 3.679688-5.203125 8.476563-5.203125 13.453125v135.871094l-79.484375 87.429687v-223.300781c0-4.886719-1.789063-9.601562-5.027344-13.257812l-144.683594-163.386719 380.332032 2.671875zm0 0"/></svg>