<svg viewBox="0 0 60 58" xmlns="http://www.w3.org/2000/svg">
    <g>
        <path id="Shape" d="m59.323 22.1c-.5691002-.6978736-1.4225009-1.1019807-2.323-1.1h-1.13l1.948-5.344c.271739-.7485456.2347118-1.5744191-.1029228-2.2956441-.3376345-.721225-.9481696-1.2786163-1.6970772-1.5493559l-31.942-11.629c-.7486691-.27204948-1.5747969-.235182-2.2962568.10247472-.7214598.33765672-1.2790133.94837796-1.5497432 1.69752528l-3.282 9.018h-8.948c-2.209139 0-4 1.790861-4 4v6h-1c-.89797307.0006617-1.7484314.4035384-2.31775774 1.0979616s-.79764663 1.6073629-.62224226 2.4880384l5.879 29.389c.46744844 2.337146 2.51756925 4.0208302 4.901 4.025h38.32c2.3824387-.0044534 4.4317949-1.6870167 4.9-4.023l5.879-29.39c.1800096-.8794717-.0463146-1.7932188-.616-2.487zm-37.214-19.437c.1879592-.51845312.7601571-.78688063 1.279-.6l31.949 11.626c.5179204.1879644.7862241.7594513.6 1.278l-2.197 6.033h-2.121l1.761-4.837c.0906832-.2495564.078394-.5249323-.0341582-.7654189-.1125523-.2404866-.316126-.4263378-.5658418-.5165811l-28.188-10.261c-.2494328-.0903728-.5245545-.07792405-.7648063.03460607-.2402518.11253011-.4259408.31591776-.5161937.56539393l-5.751 15.78h-2.123zm26.047 18.337-1.82-3.894c-.1161679-.2484278-.3292654-.4382442-.5894199-.5250254-.2601546-.0867812-.5445328-.0629105-.7865801.0660254l-8.18 4.353h-3.453l-2.45-5.262c-.11578-.2490495-.3288946-.439518-.5893334-.5267092s-.5452746-.0634294-.7876666.0657092l-9.584 5.1 4.931-13.536 26.311 9.577-1.667 4.582zm-2.208 0h-4.91l3.932-2.092zm-14.827 0h-8.121l6.509-3.462zm-25.121-6c0-1.1045695.8954305-2 2-2h8.22l-2.91 8h-7.31zm51.979 9.193-5.879 29.393c-.2793482 1.4025642-1.5098879 2.4129461-2.94 2.414h-38.32c-1.42988921-.003583-2.65935336-1.0139182-2.94-2.416l-5.879-29.392c-.05730134-.2928874.01920753-.596061.20862269-.826687.18941515-.230626.47193813-.3645984.77037731-.365313h54c.2986519.0006565.5813792.1347631.7708344.3656313.1894551.2308683.2658063.5343312.2081656.8273687z"/>
        <path id="Shape" d="m8 25h-2c-.55228475 0-1 .4477153-1 1s.44771525 1 1 1h2c.55228475 0 1-.4477153 1-1s-.44771525-1-1-1z"/>
        <path id="Shape" d="m28 25h-16c-.5522847 0-1 .4477153-1 1s.4477153 1 1 1h16c.5522847 0 1-.4477153 1-1s-.4477153-1-1-1z"/>
        <path id="Shape" d="m33.47 15.307c-.4640892 1.2760263-.0132731 2.7046752 1.0991469 3.4832274 1.1124199.7785523 2.6090696.7128813 3.6490218-.1601141 1.0399523-.8729955 1.3639023-2.3356401.7898313-3.5661133-.4980559-1.1178613-1.629104-1.8173998-2.8517224-1.763753-1.2226183.0536469-2.2880479.8495638-2.6862776 2.006753zm2.477 1.965c-.5188612-.1885424-.7867815-.7618758-.5985438-1.2808476.1882376-.5189718.7614135-.7872289 1.2804958-.599296.5190823.1879328.7876759.760951.600048 1.2801436-.0902433.2497158-.2760945.4532895-.5165811.5658418-.2404866.1125522-.5158625.1248414-.7654189.0341582z"/>
    </g>
</svg>
