<svg xmlns="http://www.w3.org/2000/svg" xmlns:xlink="http://www.w3.org/1999/xlink" width="512" height="512" viewBox="0 0 512 512">
  <defs>
    <linearGradient id="linear-gradient" x1="0.5" y1="-0.162" x2="0.5" y2="1.121" gradientUnits="objectBoundingBox">
      <stop offset="0" stop-color="#166496"/>
      <stop offset="1" stop-color="#292f4d"/>
    </linearGradient>
    <clipPath id="clip-fole-icon-image">
      <rect width="512" height="512"/>
    </clipPath>
  </defs>
  <g id="fole-icon-image" clip-path="url(#clip-fole-icon-image)">
    <g id="Page-1" transform="translate(-4.002 -516)">
      <path id="front" d="M353.387,310.671h45.189a33.1,33.1,0,0,0,32.443-26.65L479.684,40.78A16.553,16.553,0,0,0,463.462,21H16.541A16.553,16.553,0,0,0,.319,40.78L48.984,284.021a33.1,33.1,0,0,0,32.443,26.65Z" transform="translate(20 692.799)" fill="url(#linear-gradient)"/>
      <g id="Group_1" data-name="Group 1" transform="translate(-47.095 -42.348)">
        <g id="image" transform="translate(-35.12 692.692) rotate(-20)" opacity="0.996">
          <path id="Path_3" data-name="Path 3" d="M22.731,0H456.144a22.731,22.731,0,0,1,22.731,22.731V295.509a22.731,22.731,0,0,1-22.731,22.732H22.731A22.731,22.731,0,0,1,0,295.509V22.731A22.731,22.731,0,0,1,22.731,0Z" transform="matrix(0.94, 0.342, -0.342, 0.94, 108.845, 0)" fill="#166496"/>
          <path id="Path_2" data-name="Path 2" d="M206.721,69.129,242.3,103.073c3.98,0,48.907-44.221,48.907-44.221S456.144-7.813,456.144.762l22.731,25.982V172.323a22.731,22.731,0,0,1-22.731,22.731H22.731A22.731,22.731,0,0,1,0,172.323L7.628,162.4S194.167,69.129,206.721,69.129Z" transform="matrix(0.94, 0.342, -0.342, 0.94, 66.712, 115.757)" fill="#0f7240"/>
          <path id="mountain" d="M301.367,91.246l124.79-66.4a16.7,16.7,0,0,1,22.987,7.668l27.465,58.737ZM0,91.245,167.874,1.954a16.706,16.706,0,0,1,22.986,7.7l38.006,81.589Z" transform="translate(18.249 179.707)" fill="#0f7240"/>
          <path id="snow" d="M308.518,48.757c-1.833-1.575-4.013-3.152-6.448-3.043-5.918.263-6.412,6.807-11.743,5.944s-1.929-4.368-7.653-8.174S267.19,42.6,268.59,37.939s17.795-13.1,17.795-13.1a16.7,16.7,0,0,1,22.987,7.668S315.612,46.077,314,50.6c-.307.859-.714,1.206-1.213,1.206C311.739,51.807,310.29,50.282,308.518,48.757ZM57,31.488c-9.816-1.36-8.2-9.534-12.647-9.6-2.173-.031-3.82,2.388-5.672,4.809-1.944,2.538-4.113,5.077-7.351,4.789-6.327-.564-5.653-6.594-10.96-9.6-2.368-1.339-5.757,1.225-9.16,3.79C6.981,28.868,2.731,32.054.386,27.757-3.847,20,28.1,1.954,28.1,1.954a16.708,16.708,0,0,1,22.987,7.7S65.93,31.543,57.775,31.545A5.668,5.668,0,0,1,57,31.488Z" transform="translate(158.021 179.707)" fill="#fff"/>
          <path id="sun" d="M33.411,0A33.411,33.411,0,1,1,0,33.411,33.411,33.411,0,0,1,33.411,0Z" transform="translate(273.827 142.854)" fill="#fbc531"/>
        </g>
      </g>
    </g>
  </g>
</svg>
