<svg xmlns="http://www.w3.org/2000/svg" width="24" height="21" viewBox="0 0 24 21">
  <path id="gallery" d="M2016-268v-18h3.5v-3H2040v17.5h-3v3.5Zm1-6.793V-269h19v-10.793l-2-2-8.5,8.5-5-5ZM2020.5-286H2037v13.5h2V-288h-18.5Zm5,11.293,8.5-8.5,2,2V-285h-19v8.793l3.5-3.5ZM2023-281a2.5,2.5,0,0,1,2.5-2.5,2.5,2.5,0,0,1,2.5,2.5,2.5,2.5,0,0,1-2.5,2.5A2.5,2.5,0,0,1,2023-281Zm1,0a1.5,1.5,0,0,0,1.5,1.5,1.5,1.5,0,0,0,1.5-1.5,1.5,1.5,0,0,0-1.5-1.5A1.5,1.5,0,0,0,2024-281Z" transform="translate(-2016 289)" fill="#fff"/>
</svg>
