<svg xmlns="http://www.w3.org/2000/svg" width="20.994" height="21" viewBox="0 0 20.994 21">
  <path id="localization" d="M152.515-505.9a2.9,2.9,0,0,1-2.894-2.894v-4.685a2.9,2.9,0,0,1,2.894-2.894H157.2a2.892,2.892,0,0,1,2.894,2.888v4.691A2.9,2.9,0,0,1,157.2-505.9Zm-2.077-7.585v4.685a2.082,2.082,0,0,0,2.077,2.077H157.2a2.082,2.082,0,0,0,2.077-2.077v-4.685a2.082,2.082,0,0,0-2.077-2.077h-4.685A2.082,2.082,0,0,0,150.438-513.485Zm-3.151,6.891a9.714,9.714,0,0,1-7.177-7.375l-.105-.5H142.4a.406.406,0,0,1,.408.408.406.406,0,0,1-.408.408h-1.371a8.891,8.891,0,0,0,6.453,6.255.4.4,0,0,1,.3.5.41.41,0,0,1-.4.315A.583.583,0,0,1,147.287-506.594Zm9.307-2.089-.531-1.342h-2.351l-.531,1.342a.208.208,0,0,1-.193.128.173.173,0,0,1-.076-.012.2.2,0,0,1-.117-.263l1.9-4.791c.006-.006.006-.012.012-.017a.021.021,0,0,1,.006-.018c.006-.006.006-.012.012-.018s.006-.012.012-.018.006-.006.012-.012.012-.006.018-.012a.02.02,0,0,1,.012-.006c.006-.006.017-.006.023-.012s.006-.006.012-.006.017-.006.023-.006h.076c.006,0,.018.006.023.006s.006.006.012.006.017.006.023.012a.02.02,0,0,0,.012.006c.006,0,.012.006.017.012s.006.006.012.012.006.012.012.018.006.012.012.018.006.012.006.018.006.012.012.023l1.931,4.785a.2.2,0,0,1-.117.263.342.342,0,0,1-.076.012A.2.2,0,0,1,156.594-508.683Zm-2.748-1.733h2.031l-1.015-2.561Zm-11.851-6.01a2.9,2.9,0,0,1-2.894-2.894v-4.685a2.9,2.9,0,0,1,2.894-2.894h4.685a2.9,2.9,0,0,1,2.894,2.894v4.685a2.9,2.9,0,0,1-2.894,2.894Zm-2.083-7.58v4.685a2.082,2.082,0,0,0,2.077,2.077h4.685a2.082,2.082,0,0,0,2.077-2.077h.006v-4.685a2.082,2.082,0,0,0-2.077-2.077h-4.691A2.082,2.082,0,0,0,139.911-524.005Zm16.42,6.506a.406.406,0,0,1-.408-.409.406.406,0,0,1,.408-.408H157.7a8.891,8.891,0,0,0-6.453-6.255.4.4,0,0,1-.292-.5.4.4,0,0,1,.49-.3A9.714,9.714,0,0,1,158.624-518l.105.5Zm-12-2.077a2.406,2.406,0,0,1-1.488.6.207.207,0,0,1-.2-.2.207.207,0,0,1,.2-.2,1.927,1.927,0,0,0,1.179-.461,4.836,4.836,0,0,1-.455-.525,4.734,4.734,0,0,1-.91-1.972h-.753a.207.207,0,0,1-.2-.2.207.207,0,0,1,.2-.2h2.223v-1.383a.207.207,0,0,1,.2-.2.207.207,0,0,1,.2.2v1.383h2.223a.207.207,0,0,1,.2.2.207.207,0,0,1-.2.2h-.753a4.7,4.7,0,0,1-.91,1.972,5.347,5.347,0,0,1-.455.525,1.963,1.963,0,0,0,1.179.461.207.207,0,0,1,.2.2.207.207,0,0,1-.2.2A2.392,2.392,0,0,1,144.334-519.577Zm-.438-1.05a4.387,4.387,0,0,0,.438.5,5.049,5.049,0,0,0,.438-.5,4.392,4.392,0,0,0,.829-1.727h-2.527A4.287,4.287,0,0,0,143.9-520.627Z" transform="translate(-139.1 526.9)" fill="#fff"/>
</svg>
