<svg xmlns="http://www.w3.org/2000/svg" width="23.423" height="21" viewBox="0 0 23.423 21">
  <path id="manage" d="M88.173-535a.4.4,0,0,1-.4-.4.4.4,0,0,1,.4-.4h4.846a.4.4,0,0,1,.4.4.4.4,0,0,1-.4.4Zm-8.884,0a.4.4,0,0,1-.4-.4.4.4,0,0,1,.4-.4h4.846a.4.4,0,0,1,.4.4.4.4,0,0,1-.4.4ZM70.4-535a.4.4,0,0,1-.4-.4.4.4,0,0,1,.4-.4H75.25a.4.4,0,0,1,.4.4.4.4,0,0,1-.4.4Zm17.77-1.615a.4.4,0,0,1-.4-.4v-4.038a.4.4,0,0,1,.4-.4h4.846a.4.4,0,0,1,.4.4v4.038a.4.4,0,0,1-.4.4Zm.4-.808h4.039v-3.231H88.577Zm-9.288.808a.4.4,0,0,1-.4-.4v-4.038a.4.4,0,0,1,.4-.4h4.846a.4.4,0,0,1,.4.4v4.038a.4.4,0,0,1-.4.4Zm.4-.808h4.039v-3.231H79.692Zm-9.289.808a.4.4,0,0,1-.4-.4v-4.038a.4.4,0,0,1,.4-.4H75.25a.4.4,0,0,1,.4.4v4.038a.4.4,0,0,1-.4.4Zm.4-.808h4.038v-3.231H70.808Zm19.385-5.25v-2.019H82.115v2.019a.4.4,0,0,1-.4.4.4.4,0,0,1-.4-.4v-2.019H73.231v2.019a.4.4,0,0,1-.4.4.4.4,0,0,1-.4-.4V-545.1a.4.4,0,0,1,.4-.4H90.6a.4.4,0,0,1,.4.4v2.423a.4.4,0,0,1-.4.4A.4.4,0,0,1,90.193-542.673Zm-8.885-4.039v-2.019h-8.48a.4.4,0,0,1-.4-.4V-555.6a.4.4,0,0,1,.4-.4H90.6a.4.4,0,0,1,.4.4v6.462a.4.4,0,0,1-.4.4H82.115v2.019a.4.4,0,0,1-.4.4A.4.4,0,0,1,81.307-546.712Zm-8.077-2.827H90.193v-5.654H73.231Zm2.827-1.615a.4.4,0,0,1-.4-.4.4.4,0,0,1,.4-.4H87.366a.4.4,0,0,1,.4.4.4.4,0,0,1-.4.4Zm0-1.615a.4.4,0,0,1-.4-.4.4.4,0,0,1,.4-.4H87.366a.4.4,0,0,1,.4.4.4.4,0,0,1-.4.4Z" transform="translate(-70 556)" fill="#fff"/>
</svg>
