<svg xmlns="http://www.w3.org/2000/svg" width="23.873" height="21" viewBox="0 0 23.873 21"><path d="M2153.941-502.117a.17.17,0,0,1-.078-.019l-.022-.01a.222.222,0,0,1-.086-.115l-.009-.043-5.846-13.147a.168.168,0,0,1,.086-.23l16.232-7.42a.19.19,0,0,1,.244.086l1.66,3.528,2.459-.615a.249.249,0,0,1,.144.014c.043.014.072.072.086.115l2.942,13.218a.194.194,0,0,1-.129.215l-17.6,4.4-.021.009a.109.109,0,0,1-.058.014Zm.134-.4,17.276-4.319-2.856-12.874-2.386.6a.154.154,0,0,1-.039.021l-14.855,3.7Zm-5.789-12.916,5.08,11.423-2.54-11.466a.245.245,0,0,1,0-.032.193.193,0,0,1,.132-.183l14.812-3.7-1.564-3.3Zm6.889,11.367a.268.268,0,0,1-.1-.029.224.224,0,0,1-.086-.115l-2.225-9.918a.194.194,0,0,1,.129-.215l7.162-1.837a.165.165,0,0,1,.215.129l2.54,9.932a.247.247,0,0,1-.014.144.223.223,0,0,1-.115.086l-7.478,1.837C2155.2-504.069,2155.19-504.069,2155.176-504.069Zm-2.024-9.975,2.153,9.573,7.119-1.751-2.454-9.573Zm10.606,7.836a.179.179,0,0,1-.086-.115l-.359-1.421a.17.17,0,0,1,.129-.215l5.97-1.536a.165.165,0,0,1,.215.129l.359,1.421a.191.191,0,0,1-.014.129.178.178,0,0,1-.115.086l-5.971,1.536a.053.053,0,0,1-.043.014A.2.2,0,0,1,2163.759-506.208Zm-.057-1.435.273,1.076L2169.6-508l-.273-1.077Zm-8.927-1.521,1.22-1.88.33.215-.99,1.536,1.564,1-.215.33Zm2.438.842.644-3.106.394.082-.644,3.106Zm2.069-.5.99-1.579-1.564-.962.215-.344,1.909,1.191-1.22,1.909Zm3.832-.2a.173.173,0,0,1-.172-.129l-.359-1.421a.193.193,0,0,1,.014-.129.179.179,0,0,1,.115-.086l5.971-1.536a.165.165,0,0,1,.215.129l.359,1.421a.193.193,0,0,1-.014.129.179.179,0,0,1-.115.086l-5.971,1.536Zm-.144-1.478.272,1.077,5.626-1.435-.273-1.077Zm-.574-1.363a.172.172,0,0,1-.172-.129l-.359-1.421a.191.191,0,0,1,.014-.129.178.178,0,0,1,.115-.086l5.971-1.536a.192.192,0,0,1,.129.014.18.18,0,0,1,.086.115l.359,1.421a.17.17,0,0,1-.129.215l-5.971,1.536Zm-.158-1.478.273,1.077,5.626-1.435-.273-1.077Zm-.66-1.406a.178.178,0,0,1-.086-.115l-.359-1.421a.17.17,0,0,1,.129-.215l5.97-1.536a.164.164,0,0,1,.215.129l.359,1.421a.191.191,0,0,1-.014.129.179.179,0,0,1-.115.086l-5.971,1.536a.053.053,0,0,1-.043.014A.2.2,0,0,1,2161.577-514.747Zm-.058-1.435.273,1.077,5.626-1.435-.273-1.076Z" transform="translate(-2147.882 523.117)" fill="#fff"/></svg>