<svg viewBox="0 0 64 64" xmlns="http://www.w3.org/2000/svg"><path d="m33 21h4v4h-4z"/><path d="m21 33h6v6h-6z"/><path d="m13 41h6v6h-6z"/><path d="m21 41h6v6h-6z"/><path d="m21 25h6v6h-6z"/><path d="m51 55h6v6h-6z"/><path d="m6.618 17h20.382v-2h-19.382z"/><path d="m33 15h4v4h-4z"/><path d="m33 55h6v6h-6z"/><path d="m41 55h8v6h-8z"/><path d="m3 20.303c0 .258.076.508.219.723l1.316 1.974h22.465v-4h-22.697c-.719 0-1.303.584-1.303 1.303z"/><path d="m13 25h6v6h-6z"/><path d="m3 61h2v-3.5c0-2.481 2.019-4.5 4.5-4.5s4.5 2.019 4.5 4.5v3.5h2v-3.5c0-2.481 2.019-4.5 4.5-4.5s4.5 2.019 4.5 4.5v3.5h2v-12h-24z"/><path d="m9.5 55c-1.378 0-2.5 1.122-2.5 2.5v3.5h5v-3.5c0-1.378-1.122-2.5-2.5-2.5z"/><path d="m57 4c0-.551-.449-1-1-1h-22c-.551 0-1 .449-1 1v3h24z"/><path d="m20.5 55c-1.378 0-2.5 1.122-2.5 2.5v3.5h5v-3.5c0-1.378-1.122-2.5-2.5-2.5z"/><path d="m5 41h6v6h-6z"/><path d="m13 33h6v6h-6z"/><path d="m5 25h6v6h-6z"/><path d="m5 33h6v6h-6z"/><path d="m43 45h4v4h-4z"/><path d="m53 33h4v4h-4z"/><path d="m53 27h4v4h-4z"/><path d="m53 21h4v4h-4z"/><path d="m53 15h4v4h-4z"/><path d="m53 45h4v4h-4z"/><path d="m58 9h-26c-1.654 0-3 1.346-3 3v49h2v-8h28v8h2v-49c0-1.654-1.346-3-3-3zm-19 42h-8v-38h8zm10 0h-8v-38h8zm10 0h-8v-38h8z"/><path d="m53 39h4v4h-4z"/><path d="m43 39h4v4h-4z"/><path d="m43 27h4v4h-4z"/><path d="m33 45h4v4h-4z"/><path d="m43 33h4v4h-4z"/><path d="m43 15h4v4h-4z"/><path d="m33 33h4v4h-4z"/><path d="m33 39h4v4h-4z"/><path d="m33 27h4v4h-4z"/><path d="m43 21h4v4h-4z"/></svg>