<svg xmlns="http://www.w3.org/2000/svg" width="18.2" height="21" viewBox="0 0 18.2 21"><path d="M18,7.345a1.048,1.048,0,0,1-.7.986V9.795a4.2,4.2,0,1,1-8.4,0V8.33a1.05,1.05,0,1,1,.7,0V9.795a3.5,3.5,0,1,0,7,0V8.33A1.048,1.048,0,1,1,18,7.345m1.5-4.653,1.493,1.5H5.195l1.5-1.5a.35.35,0,0,0,0-.5L5.2.7H21L19.5,2.2a.35.35,0,0,0,0,.495M20.45,20.3H5.75A1.054,1.054,0,0,1,4.7,19.245V4.895H21.5v14.35A1.054,1.054,0,0,1,20.45,20.3m1.4-17.156a.35.35,0,0,0,.35-.35V.35a.35.35,0,0,0-.216-.323A.34.34,0,0,0,21.852,0c-.006,0-.011,0-.016,0H4.35L4.336,0a.353.353,0,0,0-.12.024h0l-.007,0A.344.344,0,0,0,4.113.1C4.1.1,4.1.113,4.09.122A.356.356,0,0,0,4.04.195c-.005.011-.011.021-.016.033A.352.352,0,0,0,4,.35V2.795a.35.35,0,0,0,.7,0v-1.6L5.955,2.445,4.1,4.3a.353.353,0,0,0-.075.113A.346.346,0,0,0,4,4.545v14.7A1.755,1.755,0,0,0,5.75,21h14.7a1.755,1.755,0,0,0,1.75-1.756V4.559a.348.348,0,0,0-.1-.247L22.083,4.3h0L20.245,2.446,21.5,1.194v1.6a.35.35,0,0,0,.35.35" transform="translate(-4 0)" fill="#fff" fill-rule="evenodd"/></svg>