<svg xmlns="http://www.w3.org/2000/svg" viewBox="0 0 28.999 21"><g transform="translate(-61.5 40.8)"><path d="M2036.542-327.205l-.857-1.353-.06-.09.015-.105.466-4.675a1.233,1.233,0,0,1-.18-.3l-.135.451-.075.256-.256-.045c-.721-.105-1.428-1.263-1.608-1.578-.857.256-5.051,1.7-5.051,4.991a.142.142,0,0,1-.15.15.142.142,0,0,1-.15-.15c0-3.563,4.525-5.066,5.306-5.291l.03-.045.316-.541.18-.316.271.21a3.98,3.98,0,0,0,1.308.752h1.789a3.981,3.981,0,0,0,1.308-.752l.271-.18.18.3.315.541.045.075a9.044,9.044,0,0,1,1.623.6,3.779,3.779,0,0,1,1.684-3.412,3.627,3.627,0,0,1,.256-2.736,3.114,3.114,0,0,1,.691-.857c-.075-.541-.346-3.217,1.158-4.976a4.721,4.721,0,0,1,3.788-1.518,4.974,4.974,0,0,1,5.1,3.7c.541,1.774.285,3.593-.316,4.224a4.305,4.305,0,0,1,1.458,3.593,3.412,3.412,0,0,1,1.218,3.878,4.02,4.02,0,0,1,1.022,2.736.142.142,0,0,1-.15.15.142.142,0,0,1-.15-.15c0-3.653-5.066-4.961-5.111-4.976-.015,0-.03-.015-.045-.015-.271.466-1.308,2.1-2.27,2.255l-.256.045-.075-.256-.541-1.8-.03-.09-.03.09-.541,1.8-.075.256-.256-.045c-1.052-.165-2.165-2.074-2.315-2.345a8.245,8.245,0,0,1-2.1.737c-.346.09-.706.18-1.052.286a4.908,4.908,0,0,1,2.6,4.059.142.142,0,0,1-.15.15.142.142,0,0,1-.15-.15c0-3.578-4.871-4.916-5.1-4.976-.2.346-.9,1.458-1.594,1.563l-.255.045-.075-.256-.135-.451a1.216,1.216,0,0,1-.18.3l.436,4.675.015.105-.045.09-.812,1.353-.256.421Zm-.391-7.336-.06.255a1.086,1.086,0,0,0,.316.752l-.451,4.8.857,1.353.812-1.353-.451-4.8a1.349,1.349,0,0,0,.346-.782l-.06-.225-.03-.06h-1.248Zm15.5-1.323.481.812.075.135a9.851,9.851,0,0,1,4.029,2.255A3.153,3.153,0,0,0,2055-336.12l-.075-.06.015-.09a4.1,4.1,0,0,0-1.473-3.518l-.15-.135.165-.105c.586-.406.872-2.285.346-4.014a4.688,4.688,0,0,0-4.81-3.487,4.457,4.457,0,0,0-3.563,1.413c-1.548,1.819-1.082,4.8-1.082,4.825l.015.09-.075.06a3.051,3.051,0,0,0-.887,3.427l.03.105-.045.06a3.469,3.469,0,0,0-1.638,3.382c.135.075.286.15.436.241a13.016,13.016,0,0,1,1.308-.376,7.751,7.751,0,0,0,2.089-.736.19.19,0,0,1,.09-.015l.481-.812.181-.3.27.225a5.734,5.734,0,0,0,2.06,1.143l.226.06.225-.06a5.734,5.734,0,0,0,2.06-1.143l.27-.225Zm-2.42,1.368.541,1.8c.947-.15,2.1-2.21,2.12-2.195l-.481-.812A5.8,5.8,0,0,1,2049.229-334.5Zm-3.292-.391s1.157,2.044,2.1,2.195l.556-1.8a6.007,6.007,0,0,1-2.18-1.2Zm-8.148.3a.986.986,0,0,1,.015.211v.06l.286.962c.631-.105,1.413-1.473,1.413-1.473l-.316-.541A4.052,4.052,0,0,1,2037.79-334.586Zm-3.7-.271v.06c.12.2.812,1.353,1.4,1.443l.286-.962c0-.03-.015-.045,0-.06a2.032,2.032,0,0,1,.015-.3,3.591,3.591,0,0,1-1.4-.692Zm8.343,7.321h-2.165c-.376,0-.646,0-.646-.361v-1.8h.015v-.842h3.608v2.646c0,.348-.387.361-.73.361Zm-2.51-.361c0,.21.15.06.346.06h2.149c.211,0,.511.135.511-.06v-1.593h-3.007Zm0-1.894h3.007v-.451h-3.007Zm6.494-7.4a11.073,11.073,0,0,1-1.488-3.728l-.015-.06.03-.06a7.7,7.7,0,0,0,.9-2.646l.03-.135.21.09a10.684,10.684,0,0,0,6.344,2.21h.135l.015.12a8.738,8.738,0,0,0,.225,1.2l.015.105-.015.045c-.677,2.315-2.135,4.645-3.848,4.645A3.27,3.27,0,0,1,2046.418-337.187Zm-1.172-3.743c.541,2.555,2.029,5.231,3.728,5.231,1.548,0,2.886-2.195,3.563-4.389a6.841,6.841,0,0,1-.226-1.022,11.7,11.7,0,0,1-6.193-2.255A7.914,7.914,0,0,1,2045.246-340.93Zm-12.312,1.8c-1.052-.2-1.473-1.488-1.383-2.315.03-.556.255-.932.6-1.022a5.159,5.159,0,0,1,1.218-3.5,4.624,4.624,0,0,1,3.578-1.353,4.246,4.246,0,0,1,3.262,1.263,5.782,5.782,0,0,1,1.323,3.923,1.587,1.587,0,0,1,.466,1.714,1.734,1.734,0,0,1-1.473,1.233c-.181.616-1.2,3.713-3.833,3.713S2033.1-338.525,2032.934-339.126Zm-1.127-2.42c-.045.782.376,1.984,1.263,2.089l.1.075.03.105c.015.03.842,3.518,3.487,3.518,2.676,0,3.548-3.563,3.563-3.593l.03-.12h.12a1.4,1.4,0,0,0,1.293-1.037,1.274,1.274,0,0,0-.421-1.428,9.318,9.318,0,0,1-1.729-1.052c-.571-.436-1.052-.511-1.172-.391-.09.09-.015.376.346.812l.18.241-.3.015h-.015a11.555,11.555,0,0,1-2.089-.767c-.346-.15-.646-.3-.782-.346a2.994,2.994,0,0,0-3.187,1.082.249.249,0,0,1-.2.075h-.06C2031.957-342.268,2031.822-341.922,2031.807-341.546Zm7.907-1.669a9.318,9.318,0,0,0,1.473.917,5.452,5.452,0,0,0-1.233-3.563,3.987,3.987,0,0,0-3.037-1.158,4.365,4.365,0,0,0-3.352,1.248,4.56,4.56,0,0,0-1.143,3.051,3.152,3.152,0,0,1,3.367-.917c.15.045.436.165.812.316.451.18,1.172.481,1.624.631-.316-.511-.2-.767-.09-.887a.549.549,0,0,1,.4-.144A2.115,2.115,0,0,1,2039.714-343.215Zm8.042,5.712-.015-.06.03-.06a1.307,1.307,0,0,1,1.188-.5,1.552,1.552,0,0,1,1.263.481l.06.075-.045.09a1.356,1.356,0,0,1-1.293.631C2047.951-336.841,2047.756-337.473,2047.756-337.5Zm.331-.015c.06.12.271.376.872.376a1.148,1.148,0,0,0,.962-.376,1.42,1.42,0,0,0-.962-.3A1.146,1.146,0,0,0,2048.087-337.518Z" transform="translate(-1967 307)" /></g></svg>