<svg xmlns="http://www.w3.org/2000/svg" viewBox="0 0 24.282 21"><path d="M2088.876-3767.495,2084.3-3785.1a1.153,1.153,0,0,1,.123-.88,1.152,1.152,0,0,1,.709-.536l4.121-1.071a1.176,1.176,0,0,1,1.416.832l4.575,17.607a1.163,1.163,0,0,1-.831,1.416l-4.122,1.071a1.144,1.144,0,0,1-.293.038A1.162,1.162,0,0,1,2088.876-3767.495Zm.573-19.346-4.121,1.072a.382.382,0,0,0-.236.178.382.382,0,0,0-.041.293l4.575,17.608a.392.392,0,0,0,.472.278l4.121-1.071a.387.387,0,0,0,.277-.472l-4.575-17.608a.387.387,0,0,0-.375-.29A.4.4,0,0,0,2089.448-3786.841Zm-10.707,19.972a1.163,1.163,0,0,1-1.161-1.161v-18.193a1.163,1.163,0,0,1,1.161-1.161H2083a1.163,1.163,0,0,1,1.161,1.161v18.193a1.163,1.163,0,0,1-1.161,1.161Zm-.387-19.354v18.193a.387.387,0,0,0,.387.387H2083a.388.388,0,0,0,.387-.387v-18.193a.388.388,0,0,0-.387-.387h-4.258A.387.387,0,0,0,2078.354-3786.222Zm-6.193,19.354a1.163,1.163,0,0,1-1.161-1.161v-18.193a1.163,1.163,0,0,1,1.161-1.161h4.258a1.163,1.163,0,0,1,1.161,1.161v18.193a1.163,1.163,0,0,1-1.161,1.161Zm-.387-19.354v18.193a.387.387,0,0,0,.387.387h4.258a.388.388,0,0,0,.387-.387v-18.193a.388.388,0,0,0-.387-.387h-4.258A.387.387,0,0,0,2071.774-3786.222Zm7.936,15.677a1.162,1.162,0,0,1,1.161-1.161,1.163,1.163,0,0,1,1.161,1.161,1.163,1.163,0,0,1-1.161,1.161A1.162,1.162,0,0,1,2079.709-3770.546Zm.387,0a.775.775,0,0,0,.774.774.775.775,0,0,0,.774-.774.775.775,0,0,0-.774-.774A.775.775,0,0,0,2080.1-3770.546Zm-6.967,0a1.163,1.163,0,0,1,1.161-1.161,1.163,1.163,0,0,1,1.161,1.161,1.163,1.163,0,0,1-1.161,1.161A1.163,1.163,0,0,1,2073.129-3770.546Zm.387,0a.774.774,0,0,0,.774.774.775.775,0,0,0,.774-.774.775.775,0,0,0-.774-.774A.775.775,0,0,0,2073.516-3770.546Zm16.788.081a1.151,1.151,0,0,1,.122-.88,1.156,1.156,0,0,1,.71-.536,1.184,1.184,0,0,1,.293-.038,1.162,1.162,0,0,1,1.123.869,1.157,1.157,0,0,1-.123.88,1.154,1.154,0,0,1-.708.537,1.178,1.178,0,0,1-.293.037A1.163,1.163,0,0,1,2090.3-3770.465Zm.929-1.042a.768.768,0,0,0-.472.357.767.767,0,0,0-.083.587.784.784,0,0,0,.945.555.768.768,0,0,0,.473-.357.769.769,0,0,0,.081-.587.774.774,0,0,0-.748-.579A.773.773,0,0,0,2091.233-3771.507Zm-2.1-2.682-2.517-9.689a.935.935,0,0,1,.579-1.178l.964-.25a.941.941,0,0,1,1.079.747l2.518,9.689a1.075,1.075,0,0,1-.058.728.8.8,0,0,1-.521.451l-.964.25a.763.763,0,0,1-.189.024A.968.968,0,0,1,2089.136-3774.189Zm-.877-10.742-.964.25a.553.553,0,0,0-.3.706l2.517,9.689a.558.558,0,0,0,.607.47l.963-.25a.418.418,0,0,0,.269-.24.689.689,0,0,0,.033-.466l-2.517-9.689a.591.591,0,0,0-.515-.482A.366.366,0,0,0,2088.259-3784.931Zm-7.886,11.482a.934.934,0,0,1-.857-.995v-10.01a.934.934,0,0,1,.856-.994h1a.935.935,0,0,1,.857.994v10.01a.935.935,0,0,1-.857,1Zm-.47-11.005v10.01a.553.553,0,0,0,.469.608h1a.553.553,0,0,0,.47-.607v-10.01a.552.552,0,0,0-.47-.607h-1A.552.552,0,0,0,2079.9-3784.454Zm-6.111,11.005a.934.934,0,0,1-.857-.995v-10.01a.934.934,0,0,1,.857-.994h.995a.934.934,0,0,1,.857.994v10.01a.935.935,0,0,1-.857,1Zm-.47-11.005v10.01a.553.553,0,0,0,.47.608h.995a.553.553,0,0,0,.47-.607v-10.01a.552.552,0,0,0-.47-.607h-1A.552.552,0,0,0,2073.322-3784.454Zm7.742,9.457v-8.9a.193.193,0,0,1,.193-.193.194.194,0,0,1,.194.193v8.9a.194.194,0,0,1-.194.194A.194.194,0,0,1,2081.064-3775Zm-7.354-1.161v-7.742a.194.194,0,0,1,.194-.193.194.194,0,0,1,.194.193v7.742a.194.194,0,0,1-.194.193A.194.194,0,0,1,2073.709-3776.158Zm15.258-1.758-1.46-5.62a.194.194,0,0,1,.139-.236.2.2,0,0,1,.236.139l1.46,5.62a.2.2,0,0,1-.139.236.2.2,0,0,1-.049.006A.193.193,0,0,1,2088.968-3777.917Zm-8.678-.951v-5.032a.194.194,0,0,1,.194-.193.194.194,0,0,1,.194.193v5.032a.194.194,0,0,1-.194.193A.193.193,0,0,1,2080.29-3778.868Zm-5.806-.774v-4.258a.194.194,0,0,1,.193-.193.194.194,0,0,1,.194.193v4.258a.194.194,0,0,1-.194.194A.194.194,0,0,1,2074.483-3779.642Zm14.844.032-1.071-4.121a.2.2,0,0,1,.139-.236.194.194,0,0,1,.236.139l1.07,4.121a.193.193,0,0,1-.138.236.176.176,0,0,1-.049.006A.194.194,0,0,1,2089.327-3779.61Z" transform="translate(-2071 3787.625)"/></svg>