<svg xmlns="http://www.w3.org/2000/svg" width="26.083" height="21" viewBox="0 0 26.083 21"><path d="M2049.76-368.4v-.378h2.406V-370H2043.1c-.212,0-.3-.2-.3-.393v-18.625c0-.166.076-.378.3-.378h25.478c.227,0,.3.212.3.378V-370.4c0,.2-.091.393-.3.393h-9.062v1.225h2.406v.378Zm2.8-.393h6.582v-1.225h-6.582Zm-9.38-1.6h25.312v-1.483h-25.312Zm0-1.876h25.312v-16.733h-25.312Zm12.27,1.165a.393.393,0,0,1,.393-.393.393.393,0,0,1,.393.393.393.393,0,0,1-.393.393A.393.393,0,0,1,2055.449-371.109Zm-11.03-1.846a.325.325,0,0,1-.272-.318v-14.6c0-.091.03-.182.272-.182h23.133v15.1Zm.106-.378h22.634v-13.541h-22.634v6.56l.862-1.264a.7.7,0,0,1-.182-.348.717.717,0,0,1,.56-.832.717.717,0,0,1,.832.56.65.65,0,0,1,0,.242l2.073.877a.775.775,0,0,1,.318-.151.882.882,0,0,1,.348.03l2.3-2.875a.775.775,0,0,1-.136-.3.717.717,0,0,1,.56-.832.717.717,0,0,1,.832.56.882.882,0,0,1-.03.348l2.216,1.571a4.23,4.23,0,0,1,2.217-1.359,4.673,4.673,0,0,1,1.029-.121,4.272,4.272,0,0,1,4.146,3.253,4.238,4.238,0,0,1-.125,2.447l4.528,2.742-.726,1.256-4.507-2.732a4.227,4.227,0,0,1-2.3,1.461,4.771,4.771,0,0,1-1.029.121,4.272,4.272,0,0,1-4.146-3.253,4.273,4.273,0,0,1,.5-3.238q.086-.144.182-.279l-2.195-1.582a.645.645,0,0,1-.318.166.693.693,0,0,1-.394-.03l-2.284,2.859a.862.862,0,0,1,.166.333.717.717,0,0,1-.56.832.717.717,0,0,1-.832-.56.744.744,0,0,1,.03-.363l-2.012-.847a.622.622,0,0,1-.409.257.615.615,0,0,1-.333-.015l-1.18,1.733Zm12.845-10.394a3.858,3.858,0,0,0-2.406,1.77,3.88,3.88,0,0,0-.454,2.95,3.87,3.87,0,0,0,3.782,2.965,4.953,4.953,0,0,0,.938-.106,3.822,3.822,0,0,0,2.076-1.305l.118-.162a4.66,4.66,0,0,0,.5-.893l.076-.212.007,0a3.92,3.92,0,0,0,.083-2.153,3.87,3.87,0,0,0-3.782-2.965A4.955,4.955,0,0,0,2057.37-383.727Zm-8.442,2.859a.48.48,0,0,0-.151.151l-.046.091a.254.254,0,0,0-.015.182.414.414,0,0,0,.484.318.393.393,0,0,0,.318-.439.453.453,0,0,0-.061-.151.151.151,0,0,0-.061-.076.015.015,0,0,0-.015-.015c-.015-.015-.045-.03-.06-.045l-.015-.015a.117.117,0,0,0-.061-.03h-.015a.192.192,0,0,0-.091-.015c-.03-.015-.061,0-.091,0h-.015A.738.738,0,0,0,2048.928-380.867Zm-3.117-1.574a.414.414,0,0,0-.318.484.453.453,0,0,0,.061.151l.06.061.015.015c.015,0,.03.015.046.03.015,0,.015.015.03.015a.114.114,0,0,0,.06.03c.015.015.015.015.03.015a.191.191,0,0,0,.091.015.661.661,0,0,1,.076-.015.345.345,0,0,0,.182-.091.439.439,0,0,0,.151-.348v-.045a.415.415,0,0,0-.4-.326A.411.411,0,0,0,2045.811-382.441Zm6.294-2.5a.414.414,0,0,0-.318.484.735.735,0,0,0,.045.106.39.39,0,0,0,.3.227.21.21,0,0,0,.136,0c.045,0,.076-.03.121-.045a.42.42,0,0,0,.2-.318v-.136a.415.415,0,0,0-.4-.326A.413.413,0,0,0,2052.1-384.937Zm-7.58-2.315h22.634v-.424h-22.634Zm10.334,8.17a3.566,3.566,0,0,1,2.6-4.312,3.173,3.173,0,0,1,.847-.106,3.546,3.546,0,0,1,3.45,2.708,3.566,3.566,0,0,1-2.6,4.312,3.931,3.931,0,0,1-.847.106A3.546,3.546,0,0,1,2054.859-379.082Zm.363-.106a3.173,3.173,0,0,0,3.086,2.421,3.136,3.136,0,0,0,.757-.091,3.177,3.177,0,0,0,2.33-3.843,3.173,3.173,0,0,0-3.086-2.421,3.14,3.14,0,0,0-.756.091,3.185,3.185,0,0,0-1.609.965l1.5,1.078a.56.56,0,0,1,.272-.121.717.717,0,0,1,.832.56.7.7,0,0,1-.56.832.717.717,0,0,1-.832-.56.675.675,0,0,1,.045-.424l-1.5-1.07A3.148,3.148,0,0,0,2055.222-379.188Zm2.542-1.619a.414.414,0,0,0-.318.484.414.414,0,0,0,.484.318.4.4,0,0,0,.318-.484.415.415,0,0,0-.4-.326A.409.409,0,0,0,2057.764-380.807Zm-1.528,2.6.272-.257a2.507,2.507,0,0,0,3.54.076l.257.272a2.791,2.791,0,0,1-1.982.8A2.914,2.914,0,0,1,2056.235-378.2Z" transform="translate(-2042.8 389.4)" fill="#fff"/></svg>