<svg xmlns="http://www.w3.org/2000/svg"  viewBox="0 0 15.101 15"><path d="M2061.7-1584.79a.706.706,0,0,1,0-1l6.222-6.222-6.405-6.406a.706.706,0,0,1,.037-.96.706.706,0,0,1,.959-.037l6.986,6.978a.6.6,0,0,1,0,.849l-6.795,6.794a.7.7,0,0,1-.5.209A.706.706,0,0,1,2061.7-1584.79Zm6.773,0a.706.706,0,0,1,0-1l6.222-6.222-6.406-6.406a.707.707,0,0,1,.037-.96.707.707,0,0,1,.96-.037l6.985,6.978a.6.6,0,0,1,0,.849l-6.8,6.794a.706.706,0,0,1-.5.206A.7.7,0,0,1,2068.477-1584.79Z" transform="translate(-2061.349 1599.581)"/></svg>