<svg xmlns="http://www.w3.org/2000/svg" width="20.653" height="21" viewBox="0 0 20.653 21">
  <path id="new_setting" d="M-5981.482-1739a.348.348,0,0,1-.345-.292l-.333-1.993a8.342,8.342,0,0,1-1.7-.555l-1.441,1.419a.349.349,0,0,1-.451.034l-1.7-1.234a.349.349,0,0,1-.106-.439l.9-1.807a8.447,8.447,0,0,1-1.058-1.448l-1.993.3a.345.345,0,0,1-.385-.238l-.648-2a.348.348,0,0,1,.171-.418l1.793-.933a7.612,7.612,0,0,1-.055-.895,7.517,7.517,0,0,1,.054-.9l-1.792-.932a.348.348,0,0,1-.171-.419l.647-2a.35.35,0,0,1,.385-.238l1.994.3c.11-.192.23-.381.356-.563a.352.352,0,0,1,.224-.145.348.348,0,0,1,.261.057.351.351,0,0,1,.089.487,7.23,7.23,0,0,0-.436.712.347.347,0,0,1-.361.18l-1.938-.291-.466,1.433,1.748.908a.348.348,0,0,1,.185.357,7.733,7.733,0,0,0-.079,1.046,7.891,7.891,0,0,0,.079,1.046.351.351,0,0,1-.186.358l-1.747.908.466,1.433,1.938-.292a.352.352,0,0,1,.36.181,7.692,7.692,0,0,0,1.236,1.692.349.349,0,0,1,.061.4l-.88,1.76,1.219.886,1.4-1.382a.356.356,0,0,1,.4-.066,7.657,7.657,0,0,0,1.987.648.35.35,0,0,1,.284.286l.323,1.942h1.507l.323-1.94a.352.352,0,0,1,.283-.287,7.6,7.6,0,0,0,1.989-.647.351.351,0,0,1,.4.066l1.4,1.381,1.217-.886-.876-1.76a.35.35,0,0,1,.06-.4,7.727,7.727,0,0,0,1.236-1.692.345.345,0,0,1,.36-.181l1.938.291.466-1.434-1.747-.907a.352.352,0,0,1-.188-.358,7.727,7.727,0,0,0,.081-1.046,7.736,7.736,0,0,0-.081-1.046.348.348,0,0,1,.188-.357l1.747-.909-.466-1.433-1.938.292a.351.351,0,0,1-.36-.181,7.717,7.717,0,0,0-1.236-1.691.353.353,0,0,1-.062-.4l.879-1.76-1.221-.886-1.4,1.382a.349.349,0,0,1-.4.066,7.643,7.643,0,0,0-1.989-.648.35.35,0,0,1-.282-.286l-.323-1.942h-1.507l-.323,1.941a.35.35,0,0,1-.283.287,7.59,7.59,0,0,0-1.988.647.35.35,0,0,1-.4-.065l-1.4-1.381-1.219.886.878,1.759a.353.353,0,0,1,.019.267.35.35,0,0,1-.176.2.349.349,0,0,1-.467-.157l-1.011-2.024a.35.35,0,0,1,.106-.44l1.7-1.235a.349.349,0,0,1,.45.034l1.443,1.419a8.3,8.3,0,0,1,1.7-.555l.333-1.993a.349.349,0,0,1,.344-.293h2.1a.351.351,0,0,1,.345.293l.333,1.994a8.316,8.316,0,0,1,1.7.554l1.442-1.419a.349.349,0,0,1,.451-.034l1.7,1.235a.348.348,0,0,1,.106.44l-.9,1.807a8.391,8.391,0,0,1,1.061,1.448l1.991-.3a.347.347,0,0,1,.385.238l.649,2a.352.352,0,0,1-.172.419l-1.793.933a8.406,8.406,0,0,1,.054.894,7.405,7.405,0,0,1-.056.895l1.793.933a.352.352,0,0,1,.172.419l-.648,2a.345.345,0,0,1-.385.238l-1.991-.3a8.527,8.527,0,0,1-1.059,1.448l.9,1.807a.353.353,0,0,1-.106.44l-1.7,1.234a.349.349,0,0,1-.451-.034l-1.441-1.419a8.212,8.212,0,0,1-1.7.555l-.333,1.993a.347.347,0,0,1-.342.292Zm-4.549-10.5a5.605,5.605,0,0,1,5.6-5.6,5.6,5.6,0,0,1,5.6,5.6,5.556,5.556,0,0,1-1.159,3.414.352.352,0,0,1-.491.064.351.351,0,0,1-.064-.492,4.854,4.854,0,0,0,1.016-2.988,4.9,4.9,0,0,0-4.9-4.9,4.906,4.906,0,0,0-4.9,4.9,4.906,4.906,0,0,0,4.9,4.9,4.929,4.929,0,0,0,1.695-.3.353.353,0,0,1,.45.208.351.351,0,0,1-.209.449,5.62,5.62,0,0,1-1.936.343A5.605,5.605,0,0,1-5986.031-1749.5Zm8.4,4.2a.353.353,0,0,1,.1-.248.35.35,0,0,1,.247-.1.35.35,0,0,1,.249.1.35.35,0,0,1,.1.248.35.35,0,0,1-.1.248.349.349,0,0,1-.249.1.349.349,0,0,1-.247-.1A.352.352,0,0,1-5977.633-1745.3Zm-5.6-4.2a2.8,2.8,0,0,1,2.8-2.8,2.8,2.8,0,0,1,2.8,2.8,2.8,2.8,0,0,1-2.8,2.8A2.8,2.8,0,0,1-5983.232-1749.5Zm.7,0a2.1,2.1,0,0,0,2.1,2.1,2.1,2.1,0,0,0,2.1-2.1,2.1,2.1,0,0,0-2.1-2.1A2.1,2.1,0,0,0-5982.532-1749.5Z" transform="translate(5990.762 1760.004)" fill="#fff"/>
</svg>
