<svg xmlns="http://www.w3.org/2000/svg" width="19.831" height="21" viewBox="0 0 19.831 21">
  <path id="news" d="M24.756,12.569a12.341,12.341,0,0,0-.662-1.324,28.449,28.449,0,0,0-4.809-5.824,19.825,19.825,0,0,0-2.735-2.14,8.413,8.413,0,0,0-1.257-.64A3.331,3.331,0,0,0,14.146,2.4a1.788,1.788,0,0,0-.9.243,1.858,1.858,0,0,0-.551.618,6.068,6.068,0,0,0-.309.662,4.591,4.591,0,0,0-.331,1.721,6.479,6.479,0,0,0,.11,1.125c.066.309.132.574.154.706a2.222,2.222,0,0,1,.066.551,4.954,4.954,0,0,1-.772,2.382,17.373,17.373,0,0,1-2.868,3.485.327.327,0,0,0-.154.022,6.355,6.355,0,0,0-1.61,1.059,5.154,5.154,0,0,0-1.059,1.235,4.1,4.1,0,0,0-.6,1.765c0,.088-.022.243-.022.441a3.838,3.838,0,0,0,.132.993,3.043,3.043,0,0,0,1.875,2.074,4.387,4.387,0,0,0,1.5.265A5.546,5.546,0,0,0,10.4,21.5a4.266,4.266,0,0,0,1.213-.64,9.653,9.653,0,0,1,3.75,2.206,2.345,2.345,0,0,0,.243.2.616.616,0,0,0,.4.132h.022a.679.679,0,0,0,.287-.066c.066-.022.132-.066.2-.088a11.617,11.617,0,0,0,1.3-.816,3.438,3.438,0,0,0,.441-.353,1.341,1.341,0,0,0,.331-.529,1.49,1.49,0,0,0,.044-.309,1.311,1.311,0,0,0-.309-.838,2.564,2.564,0,0,0-.816-.64,8.172,8.172,0,0,0-3.86-.993h-.331a9.273,9.273,0,0,1,4.456-2.36,14.011,14.011,0,0,1,2.493-.353,4.373,4.373,0,0,1,.772.066,9.072,9.072,0,0,0,1.324.176,2.76,2.76,0,0,0,.949-.154,6.436,6.436,0,0,0,.684-.309,2.434,2.434,0,0,0,.9-.926,2.2,2.2,0,0,0,.243-.993A7.667,7.667,0,0,0,24.756,12.569Zm-14.6,8.316a4.169,4.169,0,0,1-1.39.221,3.633,3.633,0,0,1-1.279-.221,2.613,2.613,0,0,1-1.037-.728,2.354,2.354,0,0,1-.463-.9,5.13,5.13,0,0,1-.088-.816c0-.176.022-.309.022-.375a3.2,3.2,0,0,1,.507-1.478,4.657,4.657,0,0,1,1.456-1.478c.2-.132.4-.265.6-.375a6.182,6.182,0,0,0,1.566,2.824,8.189,8.189,0,0,0,2.272,1.61,7.837,7.837,0,0,1-.507.684A4.472,4.472,0,0,1,10.153,20.885Zm3.419-1.478a7.456,7.456,0,0,1,3.551.9,1.886,1.886,0,0,1,.618.485.852.852,0,0,1,.176.441.28.28,0,0,1-.022.132.562.562,0,0,1-.176.265,1.346,1.346,0,0,1-.353.265,11.969,11.969,0,0,1-1.257.772c-.044.022-.066.044-.11.066-.022,0-.022.022-.044.022h0c-.022,0-.044-.022-.066-.022-.044-.044-.11-.088-.154-.132a9.582,9.582,0,0,0-3.618-2.228l.132-.132a5.662,5.662,0,0,0,.618-.816C13.087,19.407,13.329,19.407,13.572,19.407Zm3.993-3.618a10.132,10.132,0,0,0-5.029,2.757,7.145,7.145,0,0,1-.706-.375c-.2-.132-.375-.243-.529-.353a6.412,6.412,0,0,1-.816-.728,5.668,5.668,0,0,1-1.213-1.919,3.492,3.492,0,0,1-.2-.684A18.678,18.678,0,0,0,12.16,10.76a6.352,6.352,0,0,0,.772-1.875A17.838,17.838,0,0,0,19.44,15.5C18.888,15.547,18.315,15.657,17.565,15.79Zm5.471-.243a2.148,2.148,0,0,1-.75.132,7.309,7.309,0,0,1-1.213-.176c-.154-.022-.309-.044-.441-.066-.022-.022-.066-.044-.088-.066a16.965,16.965,0,0,1-7.5-7.632c-.022-.022-.022-.044-.044-.066-.022-.11-.022-.2-.044-.309a6.659,6.659,0,0,1-.154-.684,5.106,5.106,0,0,1-.11-1.015,3.754,3.754,0,0,1,.287-1.478c.066-.132.11-.265.2-.419a29.318,29.318,0,0,0,10.3,11.581A1.592,1.592,0,0,1,23.035,15.547ZM18.359,9.172a.611.611,0,0,0,.022.2.908.908,0,0,0,.221.463h0a.793.793,0,0,0,.463.287c.044,0,.11.022.154.022a.725.725,0,0,0,.375-.088.66.66,0,0,0,.176-.088c.066.11.154.221.221.353.022.022.022.044.044.066v.044c0,.022-.022.044-.044.088l-.4.949a31.953,31.953,0,0,1-2.735-3l.816-.176a1.118,1.118,0,0,1,.287-.044h.066c.044.022.088.022.132.044.066.044.11.088.176.132.044.044.11.088.154.132A2.793,2.793,0,0,0,18.359,9.172Zm.022.2Zm.618-.2a.28.28,0,0,1,.022-.132c.132.132.265.287.375.419-.022,0-.022.022-.044.022-.044.022-.088.022-.132.044H19.2c-.044,0-.066-.044-.11-.066a.25.25,0,0,1-.066-.176A.2.2,0,0,1,19,9.172Zm5.272,5.449a1.231,1.231,0,0,1-.11.176c-.022,0-.066-.022-.088-.022a.2.2,0,0,0-.11.022c-.022,0-.044.022-.066.044a27.989,27.989,0,0,1-3.75-2.912c.154-.4.331-.772.485-1.169a1.038,1.038,0,0,0,.088-.353v-.066a.975.975,0,0,0-.132-.353,7.479,7.479,0,0,0-1.809-2.1,2.311,2.311,0,0,0-.243-.176,1.04,1.04,0,0,0-.331-.132.828.828,0,0,1-.221.022,1.385,1.385,0,0,0-.419.066l-1.037.243c-.022,0-.044.022-.066.022a28.474,28.474,0,0,1-2.868-4.7.022.022,0,0,0,.022-.022,1,1,0,0,1,.551-.154,3.161,3.161,0,0,1,.9.2,8.731,8.731,0,0,1,2.1,1.235,26.984,26.984,0,0,1,6.375,7.059,9.22,9.22,0,0,1,.618,1.235,3.352,3.352,0,0,1,.265,1.147A1.727,1.727,0,0,1,24.271,14.621Z" transform="translate(-5.3 -2.4)" fill="#fff"/>
</svg>
