<svg viewBox="0 0 496.01 496.01" xmlns="http://www.w3.org/2000/svg"><path d="m450.81 20.312c-8.83 0-16 7.16-16 16 0 8.83 7.17 16 16 16 7.28 0 13.2 5.92 13.2 13.19v364.98c0 7.27-5.92 13.189-13.2 13.189-8.83 0-16 7.17-16 16 0 8.84 7.17 16 16 16 24.92 0 45.2-20.27 45.2-45.189v-364.98c0-24.92-20.28-45.19-45.2-45.19zm-74.15 0c-8.83 0-16 7.16-16 16 0 8.83 7.17 16 16 16 7.28 0 13.2 5.92 13.2 13.19v364.98c0 7.27-5.92 13.189-13.2 13.189-8.83 0-16 7.17-16 16 0 8.84 7.17 16 16 16 24.93 0 45.2-20.27 45.2-45.189v-364.98c0-24.92-20.27-45.19-45.2-45.19zm-28.95 45.19v364.98c0 24.92-20.27 45.189-45.2 45.189h-149.74c-8.85 0-16.01-7.18-16-16.029.04-14.28-.02-42.73-.02-100.66 0-11.07-8.98-20.04-20.04-20.04-57.93 0-86.38-.061-100.67-.021-8.85.011-16.03-7.149-16.03-16v-257.419c0-24.96 20.23-45.19 45.19-45.19h257.31c24.93 0 45.2 20.27 45.2 45.19zm-226.28 304.76v89.41c0 13.975-16.89 21.507-27.32 11.32-96.58-96.591-92.525-91.006-93.8-97.65-1.954-9.774 5.565-19.08 15.7-19.08h89.42c8.83 0 16 7.16 16 16z"/></svg>