<svg  viewBox="0 0 64 64"  xmlns="http://www.w3.org/2000/svg"><path d="m47.028 10.552c-.014-.182-.028-.366-.028-.552 0-.495.053-.978.151-1.444l-17.179-1.108c.014.182.028.366.028.552 0 .495-.053.978-.151 1.444z"/><path d="m45.136 22.68 5.32-6.651c-.579-.341-1.104-.762-1.561-1.25l-5.182 6.478z"/><path d="m28 51h-16v6h16zm-10 4h-2v-2h2zm4 0h-2v-2h2zm4 0h-2v-2h2z"/><path d="m8 47v14h24v-20.764l-3.382 6.764zm22 12h-20v-10h20z"/><path d="m34 40.236v20.764h22v-14h-18.618zm16 18.764h-2v-2h2zm4 0h-2v-2h2zm-10-6h10v2h-10zm0 4h2v2h-2z"/><path d="m20 35c0-6.617 5.383-12 12-12s12 5.383 12 12c0 .673-.063 1.341-.173 2h4.173v-4.208l-2.272-.535-.146-.595c-.338-1.377-.882-2.691-1.619-3.904l-.318-.524 1.229-1.986-3.123-3.123-1.986 1.229-.524-.318c-1.214-.737-2.528-1.281-3.904-1.619l-.595-.146-.534-2.271h-4.416l-.535 2.272-.595.146c-1.376.337-2.689.882-3.904 1.619l-.524.318-1.986-1.229-3.123 3.123 1.229 1.986-.318.524c-.737 1.214-1.281 2.528-1.619 3.904l-.146.595-2.271.534v4.208h4.173c-.11-.659-.173-1.327-.173-2z"/><path d="m35.618 39 3 6h20.764l-3-6z"/><path d="m28 35c0 .713.194 1.394.547 2h6.907c.352-.607.546-1.286.546-2 0-2.206-1.794-4-4-4s-4 1.794-4 4z"/><path d="m30.382 39h-22.764l-3 6h22.764z"/><path d="m41.776 37c.133-.657.224-1.323.224-2 0-5.514-4.486-10-10-10s-10 4.486-10 10c0 .676.091 1.343.224 2h4.125c-.226-.636-.349-1.308-.349-2 0-3.309 2.691-6 6-6s6 2.691 6 6c0 .692-.123 1.364-.348 2z"/><circle cx="54" cy="10" r="1"/><path d="m54 15c2.757 0 5-2.243 5-5s-2.243-5-5-5-5 2.243-5 5 2.243 5 5 5zm0-8c1.654 0 3 1.346 3 3s-1.346 3-3 3-3-1.346-3-3 1.346-3 3-3z"/><path d="m23 13c2.757 0 5-2.243 5-5s-2.243-5-5-5-5 2.243-5 5 2.243 5 5 5zm0-8c1.654 0 3 1.346 3 3s-1.346 3-3 3-3-1.346-3-3 1.346-3 3-3z"/><circle cx="23" cy="8" r="1"/><path d="m15 25v-5c0-2.757-2.243-5-5-5h-4c-2.757 0-5 2.243-5 5s2.243 5 5 5zm-6-6h2v2h-2zm-4 0h2v2h-2z"/><path d="m58 19h-4c-2.757 0-5 2.243-5 5v5h9c2.757 0 5-2.243 5-5s-2.243-5-5-5zm-3 6h-2v-2h2zm4 0h-2v-2h2z"/></svg>