<svg xmlns="http://www.w3.org/2000/svg" width="21.26" height="21" viewBox="0 0 21.26 21">
  <path id="review" d="M50.429-406.17H46V-423h21.26v16.83H54.6L50.429-402Zm-3.543-.886h4.429v2.917l2.917-2.917H66.374v-15.059H46.886Zm13.288-7.53a1.773,1.773,0,0,1,1.771-1.771,1.774,1.774,0,0,1,1.772,1.771,1.774,1.774,0,0,1-1.772,1.772A1.774,1.774,0,0,1,60.173-414.585Zm.886,0a.887.887,0,0,0,.886.886.886.886,0,0,0,.886-.886.887.887,0,0,0-.886-.886A.887.887,0,0,0,61.059-414.585Zm-6.2,0a1.774,1.774,0,0,1,1.772-1.771,1.773,1.773,0,0,1,1.771,1.771,1.774,1.774,0,0,1-1.771,1.772A1.774,1.774,0,0,1,54.858-414.585Zm.886,0a.886.886,0,0,0,.886.886.887.887,0,0,0,.886-.886.887.887,0,0,0-.886-.886A.887.887,0,0,0,55.744-414.585Zm-6.2,0a1.773,1.773,0,0,1,1.771-1.771,1.773,1.773,0,0,1,1.772,1.771,1.774,1.774,0,0,1-1.772,1.772A1.774,1.774,0,0,1,49.543-414.585Zm.886,0a.887.887,0,0,0,.886.886.887.887,0,0,0,.886-.886.887.887,0,0,0-.886-.886A.887.887,0,0,0,50.429-414.585Z" transform="translate(-46 423)" fill="#fff"/>
</svg>
