<svg  viewBox="0 0 64 64"  xmlns="http://www.w3.org/2000/svg"><path d="m60 3h-56c-.551 0-1 .449-1 1v5h13.586l2-2h42.414v-3c0-.551-.449-1-1-1zm-53 4h-2v-2h2zm4 0h-2v-2h2zm4 0h-2v-2h2z"/><path d="m35 33c0 1.103.897 2 2 2h.279c-.181-.849-.279-1.724-.279-2.616v-1.384c-1.103 0-2 .897-2 2z"/><path d="m53 32.384c0 .892-.098 1.767-.279 2.616h.279c1.103 0 2-.897 2-2s-.897-2-2-2z"/><path d="m45.394 43.919-.394.169-.394-.169c-.561-.24-1.096-.519-1.606-.831v.676l2 4 2-4v-.676c-.51.311-1.045.591-1.606.831z"/><path d="m45 41.902c3.659-1.747 6-5.437 6-9.518v-1.637c-1.436-.357-2.755-1.088-3.828-2.161l-.203-.203c-2.019 1.695-4.544 2.617-7.212 2.617h-.757v1.384c0 4.081 2.341 7.771 6 9.518z"/><path d="m43.732 49.701-2.255-4.511-.328.093.652 5.866z"/><path d="m48.851 45.283-.328-.093-2.255 4.511 1.931 1.448z"/><path d="m46.293 26.293.707-.707 1.586 1.586c1.179 1.179 2.747 1.828 4.414 1.828.732 0 1.409.212 2 .556v-3.433c0-1.968-1.333-3.675-3.243-4.153l-.344-.086-.213-.284c-1.691-2.254-4.382-3.6-7.2-3.6-4.962 0-9 4.038-9 9v2.556c.591-.344 1.268-.556 2-.556h2.757c2.469 0 4.79-.961 6.536-2.707z"/><path d="m17.414 11h-14.414v33c0 .551.449 1 1 1h30.861l6.139-1.754v-1.681c-1.367-1.272-2.434-2.831-3.119-4.565h-.881c-2.206 0-4-1.794-4-4v-6c0-6.065 4.935-11 11-11 3.329 0 6.513 1.536 8.588 4.126 2.615.814 4.412 3.23 4.412 5.997v6.877c0 2.206-1.794 4-4 4h-.881c-.685 1.734-1.752 3.292-3.119 4.565v1.681l6.14 1.754h4.86c.551 0 1-.449 1-1v-35h-41.586zm41.586 6h-8v-2h8zm-10-6h10v2h-10zm-42 32h-2v-2h2zm0-4h-2v-2h2zm15.03-24.063c1.557 1.947 3.88 3.063 6.373 3.063h2.597v6.468c0 7.477-4.064 14.37-10.608 17.988-.79.367-1.595.544-2.392.544s-1.602-.177-2.327-.511c-6.609-3.652-10.673-10.545-10.673-18.021v-6.468h2.597c2.493 0 4.816-1.116 6.373-3.063.985-1.231 2.454-1.937 4.03-1.937s3.045.706 4.03 1.937z"/><path d="m55.923 47.304-5.122-1.463-1.001 9.01-4.8-3.601-4.801 3.601-1.001-9.01-5.121 1.463c-2.989.854-5.077 3.621-5.077 6.73v6.966h4v-10h2v10h20v-10h2v10h4v-6.966c0-3.109-2.088-5.876-5.077-6.73zm-9.923 11.696h-2v-2h2zm0-4h-2v-2h2z"/><path d="m15.531 16.187c-1.938 2.423-4.83 3.813-7.934 3.813h-.597v4.468c0 6.749 3.669 12.971 9.576 16.238.812.368 1.972.401 2.914-.033 5.841-3.234 9.51-9.456 9.51-16.205v-4.468h-.597c-3.104 0-5.996-1.39-7.935-3.814-.603-.753-1.503-1.186-2.468-1.186s-1.865.433-2.469 1.187zm-6.531 8.281v-2.519l.819-.15c2.022-.372 3.928-1.26 5.51-2.569l1.274 1.541c-1.629 1.348-3.553 2.313-5.604 2.819v.878c0 1.113.128 2.225.38 3.305l-1.947.455c-.286-1.23-.432-2.495-.432-3.76zm17.293-1.175 1.414 1.414-11.707 11.707-4.707-4.707 1.414-1.414 3.293 3.293z"/></svg>