<svg xmlns="http://www.w3.org/2000/svg" width="22.308" height="31.812" viewBox="0 0 22.308 31.812">
  <g id="show_logo" data-name="show logo" transform="translate(-164.848 -6617.496)">
    <path id="s_logo" d="M48.156,6563.508a8.425,8.425,0,0,1-1.188,4.378,8.534,8.534,0,0,1-3.52,3.212,12.2,12.2,0,0,1-5.676,1.21,14.728,14.728,0,0,1-5.9-1.122,9.972,9.972,0,0,1-4.158-3.234,9.33,9.33,0,0,1-1.782-4.928h6.6a5.043,5.043,0,0,0,1.518,3.146,4.761,4.761,0,0,0,3.454,1.254,4.021,4.021,0,0,0,2.97-1.034,3.6,3.6,0,0,0,1.034-2.662,3.487,3.487,0,0,0-.836-2.4,6.1,6.1,0,0,0-2.112-1.518q-1.276-.572-3.52-1.32a34.857,34.857,0,0,1-4.752-1.914,8.786,8.786,0,0,1-3.146-2.75,7.879,7.879,0,0,1-1.3-4.708,7.655,7.655,0,0,1,2.882-6.314,11.845,11.845,0,0,1,7.634-2.31,12.091,12.091,0,0,1,7.854,2.376,8.968,8.968,0,0,1,3.322,6.336H40.852a4.658,4.658,0,0,0-1.408-2.75,4.371,4.371,0,0,0-3.124-1.078,4.119,4.119,0,0,0-2.772.9,3.673,3.673,0,0,0-.242,4.884,6.209,6.209,0,0,0,2.068,1.474,33.92,33.92,0,0,0,3.41,1.276,45.315,45.315,0,0,1,4.862,1.98,8.569,8.569,0,0,1,3.19,2.772A8.145,8.145,0,0,1,48.156,6563.508Z" transform="translate(139 77)" fill="#9f1941"/>
  </g>
</svg>
