<svg viewBox="0 -57 512.00013 512" xmlns="http://www.w3.org/2000/svg"><path d="m285.925781 327.722656-59.144531-37.078125c-.621094-.328125-1.210938-.710937-1.765625-1.144531-8.046875-5.003906-13-13.746094-13.152344-23.21875v-27.804688l2.46875-2.5625c14.191407-14.472656 24.617188-32.203124 30.367188-51.640624l.796875-2.734376 2.207031-1.855468c3.894531-3.210938 6.625-7.617188 7.765625-12.535156.351562-1.65625.53125-3.339844.53125-5.03125v-30.457032c-.261719-5.503906-2.59375-10.707031-6.53125-14.5625l-2.296875-2.5625v-43.785156c-1.875-18.21875-10.019531-35.226562-23.039063-48.109375-4.960937-4.734375-10.546874-8.773437-16.597656-12.003906-15.109375-7.4375-31.804687-11.074219-48.636718-10.5937502-82.894532 0-88.101563 68.2343752-88.277344 70.6210932v43.871094l-2.296875 2.472656c-3.960938 3.875-6.296875 9.117188-6.53125 14.652344v30.457032c-.015625 6.804687 3.03125 13.257812 8.296875 17.566406l2.207031 1.855468.796875 2.734376c5.75 19.4375 16.179688 37.167968 30.367188 51.640624l2.46875 2.5625v27.804688c-.210938 10.21875-5.914063 19.53125-14.917969 24.363281l-59.144531 37.078125c-19.636719 10.714844-31.8593755 31.296875-31.867188 53.671875v7.0625c.015625 4.867188 3.957031 8.8125 8.828125 8.828125h300.136719c4.871094-.015625 8.8125-3.960937 8.828125-8.828125v-7.0625c.015625-.589843-.015625-1.179687-.089844-1.765625-.53125-21.746094-12.652344-41.542968-31.777344-51.90625zm0 0"/><path d="m383.027344 327.722656-59.144532-37.078125c-9.015624-4.820312-14.71875-14.140625-14.917968-24.363281v-27.804688l2.472656-2.5625c14.1875-14.472656 24.613281-32.203124 30.367188-51.640624l.792968-2.734376 2.296875-1.945312c5.207031-4.308594 8.21875-10.71875 8.207031-17.476562v-30.457032c-.261718-5.503906-2.59375-10.707031-6.53125-14.5625l-2.292968-2.5625v-43.785156c-2.523438-25.335938-17.34375-47.8125-39.636719-60.113281-15.109375-7.4375-31.808594-11.074219-48.640625-10.5937502-9.355469-.0898438-18.6875.9179692-27.808594 3.0000002 2.894532 2.101562 5.636719 4.402343 8.210938 6.886719 16.222656 16.019531 26.289062 37.238281 28.425781 59.9375v37.960937c5.570313 6.707031 8.683594 15.113281 8.828125 23.832031v30.457032c.09375 11.109374-4.488281 21.742187-12.625 29.308593-6.289062 20.179688-17.0625 38.679688-31.515625 54.113281v20.742188c.164063 3.417969 2.019531 6.527344 4.945313 8.296875l.972656.621094.261718.175781 59.234376 37.164062c24.03125 13.40625 39.351562 38.355469 40.429687 65.851563.089844.972656.089844 1.945313.089844 3.003906v7.0625c.019531 3.015625-.519531 6.007813-1.589844 8.828125h72.210937c4.867188-.015625 8.8125-3.960937 8.828126-8.828125v-7.0625c.042968-22.386719-12.191407-42.996093-31.871094-53.671875zm0 0"/><path d="m480.132812 327.722656-59.144531-37.078125c-9.015625-4.820312-14.722656-14.140625-14.917969-24.363281v-27.804688l2.46875-2.5625c14.1875-14.472656 24.617188-32.203124 30.367188-51.640624l.796875-2.734376 2.292969-1.945312c5.210937-4.308594 8.21875-10.71875 8.210937-17.476562v-30.457032c-.261719-5.503906-2.59375-10.707031-6.53125-14.5625l-2.296875-2.5625v-43.785156c-.175781-2.914062-5.738281-70.7070312-88.277344-70.7070312-9.324218-.0898438-18.625.9179692-27.714843 3.0000002 20.597656 16.277343 33.742187 40.183593 36.457031 66.296875l.085938 1.410156v37.078125c5.574218 6.707031 8.6875 15.113281 8.828124 23.832031v30.457032c.019532 11.09375-4.550781 21.699218-12.621093 29.308593-6.292969 20.179688-17.066407 38.679688-31.515625 54.113281v20.742188c.199218 3.757812 2.386718 7.121094 5.738281 8.828125l.882813.617187 58.703124 36.8125c25.050782 13.855469 40.605469 40.226563 40.605469 68.855469v7.0625c.019531 3.015625-.519531 6.007813-1.589843 8.828125h72.210937c4.871094-.015625 8.8125-3.960937 8.828125-8.828125v-7.0625c.046875-22.386719-12.191406-42.996093-31.867188-53.671875zm0 0"/></svg>