<svg xmlns="http://www.w3.org/2000/svg" width="21" height="21" viewBox="0 0 21 21">
  <g id="web" transform="translate(-10 -9.5)">
    <path id="Объединение_5" data-name="Объединение 5" d="M10.651,21H10.5a10.5,10.5,0,0,1,0-21h.21c.045,0,.091,0,.136.006a10.5,10.5,0,0,1,0,20.989c-.045,0-.09.006-.136.006ZM8.974,17.463c.6,1.518,1.289,2.233,1.7,2.271l.086,0c.415-.057,1.1-.778,1.685-2.269a15.877,15.877,0,0,0,.907-3.683H8.07A16.26,16.26,0,0,0,8.974,17.463Zm-.357,2.081A14.144,14.144,0,0,1,6.8,13.78H1.863A9.252,9.252,0,0,0,8.616,19.544Zm4.263-.117a9.257,9.257,0,0,0,6.257-5.647H14.623A14.453,14.453,0,0,1,12.88,19.427Zm6.257-5.647a9.274,9.274,0,0,0,0-6.562H14.623a25.764,25.764,0,0,1,.205,3.282,25.76,25.76,0,0,1-.2,3.28Zm-5.784,0a24.714,24.714,0,0,0,.211-3.28,24.537,24.537,0,0,0-.214-3.282H8.067a25.384,25.384,0,0,0,0,6.562Zm-6.556,0a26.354,26.354,0,0,1,0-6.562H1.867a9.252,9.252,0,0,0,0,6.562ZM19.136,7.218A9.258,9.258,0,0,0,12.88,1.573a14.448,14.448,0,0,1,1.743,5.644Zm-5.786,0a16.178,16.178,0,0,0-.9-3.681c-.587-1.5-1.271-2.213-1.685-2.269l-.086,0c-.41.038-1.1.751-1.7,2.271a15.872,15.872,0,0,0-.907,3.681Zm-6.553,0A14.145,14.145,0,0,1,8.615,1.458,9.263,9.263,0,0,0,1.867,7.218Z" transform="translate(10 9.5)" fill="#fff"/>
    <line id="Линия_33" data-name="Линия 33" x2="18" transform="translate(11.5 17)" fill="none" stroke="#fff" stroke-width="1"/>
    <line id="Линия_34" data-name="Линия 34" x2="18" transform="translate(11.5 23)" fill="none" stroke="#fff" stroke-width="1"/>
  </g>
</svg>
