<svg xmlns="http://www.w3.org/2000/svg" xmlns:xlink="http://www.w3.org/1999/xlink" viewBox="0 0 512 512"><defs><clipPath id="b"><rect width="512" height="512"/></clipPath></defs><g id="a" class="a"><path class="b" d="M37.578,426.349a48.042,48.042,0,0,1-12.992-72.168c-.193-.109-.385-.218-.577-.328a48.009,48.009,0,0,1,.859-83.631,48.021,48.021,0,0,1,8.286-78.355A48.011,48.011,0,0,1,80.3,110.211a48.006,48.006,0,0,1,95.909-3.977,48.05,48.05,0,0,1,35.525-2.89,96.445,96.445,0,0,0,13-4.447c-.419-6.275-2.246-22.7-9.307-33.541a25.751,25.751,0,0,1-1.29,11.326C210.37,87.435,195.04,89.913,187.3,84.3c-8.989-5.941-10.6-18.969-4.117-26.95,4.711-6.134,14.217-8.856,22.752-7.312a101.546,101.546,0,0,0-5.4-11.262,60.13,60.13,0,0,0-5.922-9.032c-3.091,10.9-12.131,18.638-20.219,12.976-16.888-9.953-1.248-30.876,11.3-25.422a40.264,40.264,0,0,1,6.741,3.773,25.607,25.607,0,0,0-1.547-9.037c-3.092-6.739-7.57-8.356-7.3-8.542a1.365,1.365,0,1,1,1.365-2.363,25.2,25.2,0,0,1,10.708,22.728c3.322,3.208,5.837,7.024,9.175,12.467A101.874,101.874,0,0,1,212.4,52.306a18.724,18.724,0,0,1,5.946,4.553c8.179,8.926,13.144,27.9,14.644,37.89,11.965-7.175,15.774-14.552,16.538-23.893a4.73,4.73,0,0,1,4.756-4.348l15.324.109a4.74,4.74,0,0,1,4.6,5.743c-4.425,20.512-15.8,35.068-43.793,41.838a48.05,48.05,0,0,1,15.073,32.037A48.007,48.007,0,0,1,290,231.283a48.01,48.01,0,0,1-47.144,81.655,48.02,48.02,0,0,1-63.713,46.354,48.011,48.011,0,0,1-72,42.559c-.193-.112-.383-.223-.573-.337a48.076,48.076,0,0,1-45.041,31.272A47.76,47.76,0,0,1,37.578,426.349Zm153.207-347.2c7.676,6.04,23.64,1.907,17.987-20.719a14.708,14.708,0,0,0-7.5-2.025C189.171,56.4,178.055,70.514,190.785,79.147ZM176.551,39.61c5.612,4.023,13.146-2.84,15.322-12.839a22.844,22.844,0,0,0-7.685-5.275,7.188,7.188,0,0,0-3.02-.654C173.514,20.843,165.813,32.362,176.551,39.61Z" transform="translate(98.566 39.133)"/></g></svg>