<svg xmlns="http://www.w3.org/2000/svg" xmlns:xlink="http://www.w3.org/1999/xlink" width="512" height="512" viewBox="0 0 512 512">
  <defs>
    <clipPath id="clip-ShowU_2">
      <rect width="512" height="512"/>
    </clipPath>
  </defs>
  <g id="ShowU_2" data-name="ShowU – 2" clip-path="url(#clip-ShowU_2)">
    <g id="Group_24" data-name="Group 24" transform="translate(-116.368 136)">
      <path id="Path_3" data-name="Path 3" d="M41.634,8.238c0-19.15-27.869-13.078-27.869-23.976,0-4.437,3.192-6.539,7.473-6.383,4.671.078,7.551,2.88,7.785,6.461H41.011c-.7-9.809-8.329-15.491-19.461-15.491-11.21,0-19.15,5.916-19.15,15.725C2.322,4.268,30.346-2.816,30.346,8.938c0,3.892-3.036,6.617-8.174,6.617-5.06,0-7.94-2.88-8.252-7.24H2.244C2.4,18.591,11.118,24.507,22.406,24.507,34.783,24.507,41.634,16.8,41.634,8.238Zm69.905,15.725h10.9V-30.374h-10.9V-8.032H88.263V-30.374h-10.9V23.963h10.9V.842h23.276ZM212.5-3.361c0-16.27-12.3-27.791-27.791-27.791-15.336,0-27.869,11.521-27.869,27.791,0,16.348,12.533,27.869,27.869,27.869C200.127,24.507,212.5,12.986,212.5-3.361Zm-44.45,0c0-11.054,6.773-17.982,16.659-17.982,9.809,0,16.581,6.928,16.581,17.982s-6.773,18.138-16.581,18.138C174.827,14.777,168.055,7.693,168.055-3.361Zm89.834,27.4,12.767-.078L281.32-14.727l10.2,38.689h12.844l15.18-54.336H307.787l-9.653,41.959L287.7-30.374H275.559L264.505,11.819,254.93-30.374H243.253ZM420.04,3.178c0,14.324,9.809,21.33,21.719,21.33s22.186-7.006,22.186-21.33V-30.374H452.969V3.256c0,7.473-4.048,11.365-11.054,11.365-6.928,0-10.976-3.892-10.976-11.365V-30.374h-10.9Z" transform="translate(139 123)" fill="#fff"/>
      <path id="Path_2" data-name="Path 2" d="M35.384,11.232C35.384,5.029,31.119,0,25.858,0a9.34,9.34,0,0,0-8.165,5.445A9.341,9.341,0,0,0,9.527,0C4.265,0,0,5.029,0,11.232a12.211,12.211,0,0,0,3.006,8.185H3L16.643,34.8a1.288,1.288,0,0,0,1.046.58,1.268,1.268,0,0,0,.989-.506l13.7-15.462h0a12.209,12.209,0,0,0,3.006-8.185" transform="translate(484.159 104.031)" fill="#fff"/>
    </g>
  </g>
</svg>
