<svg xmlns="http://www.w3.org/2000/svg" xmlns:xlink="http://www.w3.org/1999/xlink" viewBox="0 0 1536 512">
  <g id="Group_24" data-name="Group 24" transform="translate(-109.244 75.567)">
    <path id="Path_3" data-name="Path 3" d="M127.827,94.431c0-61.054-88.851-41.7-88.851-76.442C38.976,3.842,49.151-2.859,62.8-2.362c14.891.248,24.074,9.183,24.819,20.6h38.221c-2.234-31.272-26.556-49.389-62.047-49.389C28.055-31.152,2.74-12.29,2.74,18.982c-.248,62.791,89.1,40.206,89.1,77.683,0,12.409-9.679,21.1-26.06,21.1-16.132,0-25.315-9.183-26.308-23.081H2.244C2.74,127.44,30.537,146.3,66.525,146.3,105.986,146.3,127.827,121.731,127.827,94.431ZM350.7,144.565h34.746V-28.67H350.7V42.56H276.491V-28.67H241.745V144.565h34.746V70.853H350.7ZM672.6,57.451c0-51.871-39.214-88.6-88.6-88.6-48.893,0-88.851,36.732-88.851,88.6C495.144,109.57,535.1,146.3,584,146.3,633.136,146.3,672.6,109.57,672.6,57.451Zm-141.715,0C530.883,22.208,552.476.12,584,.12c31.272,0,52.864,22.089,52.864,57.331S615.267,115.279,584,115.279C552.476,115.279,530.883,92.694,530.883,57.451Zm286.408,87.362,40.7-.248L892,21.216l32.513,123.349H965.46l48.4-173.235H976.38L945.6,105.1,912.348-28.67H873.63L838.388,105.847,807.861-28.67H770.632ZM1334.266,78.3c0,45.666,31.272,68,69.244,68s70.733-22.337,70.733-68V-28.67H1439.25V78.547c0,23.826-12.906,36.235-35.243,36.235-22.089,0-34.994-12.409-34.994-36.235V-28.67h-34.746Z" transform="translate(139 123)"/>
    <path id="Path_2" data-name="Path 2" d="M112.812,35.81C112.812,16.033,99.215,0,82.44,0,71.39,0,61.721,6.959,56.407,17.361,51.093,6.959,41.423,0,30.373,0,13.6,0,0,16.033,0,35.81A38.933,38.933,0,0,0,9.585,61.9H9.577l43.484,49.058a4.107,4.107,0,0,0,3.335,1.85,4.042,4.042,0,0,0,3.152-1.613L103.242,61.9h-.013a38.924,38.924,0,0,0,9.584-26.094" transform="translate(1234.529 130.691)"/>
  </g>
  <g id="Group_26" data-name="Group 26" transform="translate(-109.244 75.567)">
    <path id="Path_2-2" data-name="Path 2" d="M112.812,35.81C112.812,16.033,99.215,0,82.44,0,71.39,0,61.721,6.959,56.407,17.361,51.093,6.959,41.423,0,30.373,0,13.6,0,0,16.033,0,35.81A38.933,38.933,0,0,0,9.585,61.9H9.577l43.484,49.058a4.107,4.107,0,0,0,3.335,1.85,4.042,4.042,0,0,0,3.152-1.613L103.242,61.9h-.013a38.924,38.924,0,0,0,9.584-26.094" transform="translate(1234.529 130.691)"/>
  </g>
</svg>
